<?xml version="1.0" encoding="utf-8" standalone="no"?>
<!DOCTYPE svg PUBLIC "-//W3C//DTD SVG 1.1//EN"
  "http://www.w3.org/Graphics/SVG/1.1/DTD/svg11.dtd">
<svg xmlns:xlink="http://www.w3.org/1999/xlink" width="465.12pt" height="407.52pt" viewBox="0 0 465.12 407.52" xmlns="http://www.w3.org/2000/svg" version="1.1">
 <metadata>
  <rdf:RDF xmlns:dc="http://purl.org/dc/elements/1.1/" xmlns:cc="http://creativecommons.org/ns#" xmlns:rdf="http://www.w3.org/1999/02/22-rdf-syntax-ns#">
   <cc:Work>
    <dc:type rdf:resource="http://purl.org/dc/dcmitype/StillImage"/>
    <dc:date>2025-10-12T14:12:33.772375</dc:date>
    <dc:format>image/svg+xml</dc:format>
    <dc:creator>
     <cc:Agent>
      <dc:title>Matplotlib v3.10.3, https://matplotlib.org/</dc:title>
     </cc:Agent>
    </dc:creator>
   </cc:Work>
  </rdf:RDF>
 </metadata>
 <defs>
  <style type="text/css">*{stroke-linejoin: round; stroke-linecap: butt}</style>
 </defs>
 <g id="figure_1">
  <g id="patch_1">
   <path d="M 0 407.52 
L 465.12 407.52 
L 465.12 0 
L 0 0 
z
" style="fill: #ffffff"/>
  </g>
  <g id="axes_1">
   <g id="patch_2">
    <path d="M 53.887993 358.323779 
L 457.92 358.323779 
L 457.92 28.14396 
L 53.887993 28.14396 
z
" style="fill: #ffffff"/>
   </g>
   <g id="matplotlib.axis_1">
    <g id="xtick_1">
     <g id="line2d_1">
      <path d="M 72.253084 358.323779 
L 72.253084 28.14396 
" clip-path="url(#p28e398198d)" style="fill: none; stroke-dasharray: 2.96,1.28; stroke-dashoffset: 0; stroke: #808080; stroke-opacity: 0.1; stroke-width: 0.8"/>
     </g>
     <g id="line2d_2">
      <defs>
       <path id="mf47c7ab38a" d="M 0 0 
L 0 3.5 
" style="stroke: #000000; stroke-width: 0.8"/>
      </defs>
      <g>
       <use xlink:href="#mf47c7ab38a" x="72.253084" y="358.323779" style="stroke: #000000; stroke-width: 0.8"/>
      </g>
     </g>
     <g id="text_1">
      <!-- $\mathdefault{10^{1}}$ -->
      <g transform="translate(63.582915 374.317807) scale(0.13 -0.13)">
       <defs>
        <path id="CMR17-31" d="M 1702 4058 
C 1702 4192 1696 4192 1606 4192 
C 1357 3916 979 3827 621 3827 
C 602 3827 570 3827 563 3808 
C 557 3795 557 3782 557 3648 
C 755 3648 1088 3686 1344 3839 
L 1344 461 
C 1344 236 1331 160 781 160 
L 589 160 
L 589 0 
C 896 0 1216 0 1523 0 
C 1830 0 2150 0 2458 0 
L 2458 160 
L 2266 160 
C 1715 160 1702 230 1702 458 
L 1702 4058 
z
" transform="scale(0.015625)"/>
        <path id="CMR17-30" d="M 2688 2025 
C 2688 2416 2682 3080 2413 3591 
C 2176 4039 1798 4198 1466 4198 
C 1158 4198 768 4058 525 3597 
C 269 3118 243 2524 243 2025 
C 243 1661 250 1106 448 619 
C 723 -39 1216 -128 1466 -128 
C 1760 -128 2208 -7 2470 600 
C 2662 1042 2688 1559 2688 2025 
z
M 1466 -26 
C 1056 -26 813 325 723 812 
C 653 1188 653 1738 653 2096 
C 653 2588 653 2997 736 3387 
C 858 3929 1216 4096 1466 4096 
C 1728 4096 2067 3923 2189 3400 
C 2272 3036 2278 2607 2278 2096 
C 2278 1680 2278 1169 2202 792 
C 2067 95 1690 -26 1466 -26 
z
" transform="scale(0.015625)"/>
       </defs>
       <use xlink:href="#CMR17-31" transform="scale(0.996264)"/>
       <use xlink:href="#CMR17-30" transform="translate(45.690477 0) scale(0.996264)"/>
       <use xlink:href="#CMR17-31" transform="translate(91.380954 36.153639) scale(0.697382)"/>
      </g>
     </g>
    </g>
    <g id="xtick_2">
     <g id="line2d_3">
      <path d="M 194.687026 358.323779 
L 194.687026 28.14396 
" clip-path="url(#p28e398198d)" style="fill: none; stroke-dasharray: 2.96,1.28; stroke-dashoffset: 0; stroke: #808080; stroke-opacity: 0.1; stroke-width: 0.8"/>
     </g>
     <g id="line2d_4">
      <g>
       <use xlink:href="#mf47c7ab38a" x="194.687026" y="358.323779" style="stroke: #000000; stroke-width: 0.8"/>
      </g>
     </g>
     <g id="text_2">
      <!-- $\mathdefault{10^{2}}$ -->
      <g transform="translate(186.016856 374.317807) scale(0.13 -0.13)">
       <defs>
        <path id="CMR17-32" d="M 2669 989 
L 2554 989 
C 2490 536 2438 459 2413 420 
C 2381 369 1920 369 1830 369 
L 602 369 
C 832 619 1280 1072 1824 1597 
C 2214 1967 2669 2402 2669 3035 
C 2669 3790 2067 4224 1395 4224 
C 691 4224 262 3604 262 3030 
C 262 2780 448 2748 525 2748 
C 589 2748 781 2787 781 3010 
C 781 3207 614 3264 525 3264 
C 486 3264 448 3258 422 3245 
C 544 3790 915 4058 1306 4058 
C 1862 4058 2227 3617 2227 3035 
C 2227 2479 1901 2000 1536 1584 
L 262 146 
L 262 0 
L 2515 0 
L 2669 989 
z
" transform="scale(0.015625)"/>
       </defs>
       <use xlink:href="#CMR17-31" transform="scale(0.996264)"/>
       <use xlink:href="#CMR17-30" transform="translate(45.690477 0) scale(0.996264)"/>
       <use xlink:href="#CMR17-32" transform="translate(91.380954 36.153639) scale(0.697382)"/>
      </g>
     </g>
    </g>
    <g id="xtick_3">
     <g id="line2d_5">
      <path d="M 317.120967 358.323779 
L 317.120967 28.14396 
" clip-path="url(#p28e398198d)" style="fill: none; stroke-dasharray: 2.96,1.28; stroke-dashoffset: 0; stroke: #808080; stroke-opacity: 0.1; stroke-width: 0.8"/>
     </g>
     <g id="line2d_6">
      <g>
       <use xlink:href="#mf47c7ab38a" x="317.120967" y="358.323779" style="stroke: #000000; stroke-width: 0.8"/>
      </g>
     </g>
     <g id="text_3">
      <!-- $\mathdefault{10^{3}}$ -->
      <g transform="translate(308.450798 374.317807) scale(0.13 -0.13)">
       <defs>
        <path id="CMR17-33" d="M 1414 2157 
C 1984 2157 2234 1662 2234 1090 
C 2234 320 1824 25 1453 25 
C 1114 25 563 194 390 693 
C 422 680 454 680 486 680 
C 640 680 755 782 755 948 
C 755 1133 614 1216 486 1216 
C 378 1216 211 1165 211 926 
C 211 335 787 -128 1466 -128 
C 2176 -128 2720 430 2720 1085 
C 2720 1707 2208 2157 1600 2227 
C 2086 2328 2554 2756 2554 3329 
C 2554 3820 2048 4179 1472 4179 
C 890 4179 378 3829 378 3329 
C 378 3110 544 3072 627 3072 
C 762 3072 877 3155 877 3321 
C 877 3486 762 3569 627 3569 
C 602 3569 570 3569 544 3557 
C 730 3959 1235 4032 1459 4032 
C 1683 4032 2106 3925 2106 3320 
C 2106 3143 2080 2828 1862 2550 
C 1670 2304 1453 2304 1242 2284 
C 1210 2284 1062 2269 1037 2269 
C 992 2263 966 2257 966 2208 
C 966 2163 973 2157 1101 2157 
L 1414 2157 
z
" transform="scale(0.015625)"/>
       </defs>
       <use xlink:href="#CMR17-31" transform="scale(0.996264)"/>
       <use xlink:href="#CMR17-30" transform="translate(45.690477 0) scale(0.996264)"/>
       <use xlink:href="#CMR17-33" transform="translate(91.380954 36.153639) scale(0.697382)"/>
      </g>
     </g>
    </g>
    <g id="xtick_4">
     <g id="line2d_7">
      <path d="M 439.554909 358.323779 
L 439.554909 28.14396 
" clip-path="url(#p28e398198d)" style="fill: none; stroke-dasharray: 2.96,1.28; stroke-dashoffset: 0; stroke: #808080; stroke-opacity: 0.1; stroke-width: 0.8"/>
     </g>
     <g id="line2d_8">
      <g>
       <use xlink:href="#mf47c7ab38a" x="439.554909" y="358.323779" style="stroke: #000000; stroke-width: 0.8"/>
      </g>
     </g>
     <g id="text_4">
      <!-- $\mathdefault{10^{4}}$ -->
      <g transform="translate(430.884739 374.317807) scale(0.13 -0.13)">
       <defs>
        <path id="CMR17-34" d="M 2150 4122 
C 2150 4256 2144 4256 2029 4256 
L 128 1254 
L 128 1088 
L 1779 1088 
L 1779 457 
C 1779 224 1766 160 1318 160 
L 1197 160 
L 1197 0 
C 1402 0 1747 0 1965 0 
C 2182 0 2528 0 2733 0 
L 2733 160 
L 2611 160 
C 2163 160 2150 224 2150 457 
L 2150 1088 
L 2803 1088 
L 2803 1254 
L 2150 1254 
L 2150 4122 
z
M 1798 3703 
L 1798 1254 
L 256 1254 
L 1798 3703 
z
" transform="scale(0.015625)"/>
       </defs>
       <use xlink:href="#CMR17-31" transform="scale(0.996264)"/>
       <use xlink:href="#CMR17-30" transform="translate(45.690477 0) scale(0.996264)"/>
       <use xlink:href="#CMR17-34" transform="translate(91.380954 36.153639) scale(0.697382)"/>
      </g>
     </g>
    </g>
    <g id="xtick_5">
     <g id="line2d_9">
      <path d="M 60.38801 358.323779 
L 60.38801 28.14396 
" clip-path="url(#p28e398198d)" style="fill: none; stroke-dasharray: 2.96,1.28; stroke-dashoffset: 0; stroke: #808080; stroke-opacity: 0.1; stroke-width: 0.8"/>
     </g>
     <g id="line2d_10">
      <defs>
       <path id="m412d98b5b3" d="M 0 0 
L 0 2 
" style="stroke: #000000; stroke-width: 0.6"/>
      </defs>
      <g>
       <use xlink:href="#m412d98b5b3" x="60.38801" y="358.323779" style="stroke: #000000; stroke-width: 0.6"/>
      </g>
     </g>
    </g>
    <g id="xtick_6">
     <g id="line2d_11">
      <path d="M 66.650814 358.323779 
L 66.650814 28.14396 
" clip-path="url(#p28e398198d)" style="fill: none; stroke-dasharray: 2.96,1.28; stroke-dashoffset: 0; stroke: #808080; stroke-opacity: 0.1; stroke-width: 0.8"/>
     </g>
     <g id="line2d_12">
      <g>
       <use xlink:href="#m412d98b5b3" x="66.650814" y="358.323779" style="stroke: #000000; stroke-width: 0.6"/>
      </g>
     </g>
    </g>
    <g id="xtick_7">
     <g id="line2d_13">
      <path d="M 109.109373 358.323779 
L 109.109373 28.14396 
" clip-path="url(#p28e398198d)" style="fill: none; stroke-dasharray: 2.96,1.28; stroke-dashoffset: 0; stroke: #808080; stroke-opacity: 0.1; stroke-width: 0.8"/>
     </g>
     <g id="line2d_14">
      <g>
       <use xlink:href="#m412d98b5b3" x="109.109373" y="358.323779" style="stroke: #000000; stroke-width: 0.6"/>
      </g>
     </g>
    </g>
    <g id="xtick_8">
     <g id="line2d_15">
      <path d="M 130.66892 358.323779 
L 130.66892 28.14396 
" clip-path="url(#p28e398198d)" style="fill: none; stroke-dasharray: 2.96,1.28; stroke-dashoffset: 0; stroke: #808080; stroke-opacity: 0.1; stroke-width: 0.8"/>
     </g>
     <g id="line2d_16">
      <g>
       <use xlink:href="#m412d98b5b3" x="130.66892" y="358.323779" style="stroke: #000000; stroke-width: 0.6"/>
      </g>
     </g>
    </g>
    <g id="xtick_9">
     <g id="line2d_17">
      <path d="M 145.965662 358.323779 
L 145.965662 28.14396 
" clip-path="url(#p28e398198d)" style="fill: none; stroke-dasharray: 2.96,1.28; stroke-dashoffset: 0; stroke: #808080; stroke-opacity: 0.1; stroke-width: 0.8"/>
     </g>
     <g id="line2d_18">
      <g>
       <use xlink:href="#m412d98b5b3" x="145.965662" y="358.323779" style="stroke: #000000; stroke-width: 0.6"/>
      </g>
     </g>
    </g>
    <g id="xtick_10">
     <g id="line2d_19">
      <path d="M 157.830737 358.323779 
L 157.830737 28.14396 
" clip-path="url(#p28e398198d)" style="fill: none; stroke-dasharray: 2.96,1.28; stroke-dashoffset: 0; stroke: #808080; stroke-opacity: 0.1; stroke-width: 0.8"/>
     </g>
     <g id="line2d_20">
      <g>
       <use xlink:href="#m412d98b5b3" x="157.830737" y="358.323779" style="stroke: #000000; stroke-width: 0.6"/>
      </g>
     </g>
    </g>
    <g id="xtick_11">
     <g id="line2d_21">
      <path d="M 167.525209 358.323779 
L 167.525209 28.14396 
" clip-path="url(#p28e398198d)" style="fill: none; stroke-dasharray: 2.96,1.28; stroke-dashoffset: 0; stroke: #808080; stroke-opacity: 0.1; stroke-width: 0.8"/>
     </g>
     <g id="line2d_22">
      <g>
       <use xlink:href="#m412d98b5b3" x="167.525209" y="358.323779" style="stroke: #000000; stroke-width: 0.6"/>
      </g>
     </g>
    </g>
    <g id="xtick_12">
     <g id="line2d_23">
      <path d="M 175.721768 358.323779 
L 175.721768 28.14396 
" clip-path="url(#p28e398198d)" style="fill: none; stroke-dasharray: 2.96,1.28; stroke-dashoffset: 0; stroke: #808080; stroke-opacity: 0.1; stroke-width: 0.8"/>
     </g>
     <g id="line2d_24">
      <g>
       <use xlink:href="#m412d98b5b3" x="175.721768" y="358.323779" style="stroke: #000000; stroke-width: 0.6"/>
      </g>
     </g>
    </g>
    <g id="xtick_13">
     <g id="line2d_25">
      <path d="M 182.821951 358.323779 
L 182.821951 28.14396 
" clip-path="url(#p28e398198d)" style="fill: none; stroke-dasharray: 2.96,1.28; stroke-dashoffset: 0; stroke: #808080; stroke-opacity: 0.1; stroke-width: 0.8"/>
     </g>
     <g id="line2d_26">
      <g>
       <use xlink:href="#m412d98b5b3" x="182.821951" y="358.323779" style="stroke: #000000; stroke-width: 0.6"/>
      </g>
     </g>
    </g>
    <g id="xtick_14">
     <g id="line2d_27">
      <path d="M 189.084756 358.323779 
L 189.084756 28.14396 
" clip-path="url(#p28e398198d)" style="fill: none; stroke-dasharray: 2.96,1.28; stroke-dashoffset: 0; stroke: #808080; stroke-opacity: 0.1; stroke-width: 0.8"/>
     </g>
     <g id="line2d_28">
      <g>
       <use xlink:href="#m412d98b5b3" x="189.084756" y="358.323779" style="stroke: #000000; stroke-width: 0.6"/>
      </g>
     </g>
    </g>
    <g id="xtick_15">
     <g id="line2d_29">
      <path d="M 231.543315 358.323779 
L 231.543315 28.14396 
" clip-path="url(#p28e398198d)" style="fill: none; stroke-dasharray: 2.96,1.28; stroke-dashoffset: 0; stroke: #808080; stroke-opacity: 0.1; stroke-width: 0.8"/>
     </g>
     <g id="line2d_30">
      <g>
       <use xlink:href="#m412d98b5b3" x="231.543315" y="358.323779" style="stroke: #000000; stroke-width: 0.6"/>
      </g>
     </g>
    </g>
    <g id="xtick_16">
     <g id="line2d_31">
      <path d="M 253.102862 358.323779 
L 253.102862 28.14396 
" clip-path="url(#p28e398198d)" style="fill: none; stroke-dasharray: 2.96,1.28; stroke-dashoffset: 0; stroke: #808080; stroke-opacity: 0.1; stroke-width: 0.8"/>
     </g>
     <g id="line2d_32">
      <g>
       <use xlink:href="#m412d98b5b3" x="253.102862" y="358.323779" style="stroke: #000000; stroke-width: 0.6"/>
      </g>
     </g>
    </g>
    <g id="xtick_17">
     <g id="line2d_33">
      <path d="M 268.399604 358.323779 
L 268.399604 28.14396 
" clip-path="url(#p28e398198d)" style="fill: none; stroke-dasharray: 2.96,1.28; stroke-dashoffset: 0; stroke: #808080; stroke-opacity: 0.1; stroke-width: 0.8"/>
     </g>
     <g id="line2d_34">
      <g>
       <use xlink:href="#m412d98b5b3" x="268.399604" y="358.323779" style="stroke: #000000; stroke-width: 0.6"/>
      </g>
     </g>
    </g>
    <g id="xtick_18">
     <g id="line2d_35">
      <path d="M 280.264678 358.323779 
L 280.264678 28.14396 
" clip-path="url(#p28e398198d)" style="fill: none; stroke-dasharray: 2.96,1.28; stroke-dashoffset: 0; stroke: #808080; stroke-opacity: 0.1; stroke-width: 0.8"/>
     </g>
     <g id="line2d_36">
      <g>
       <use xlink:href="#m412d98b5b3" x="280.264678" y="358.323779" style="stroke: #000000; stroke-width: 0.6"/>
      </g>
     </g>
    </g>
    <g id="xtick_19">
     <g id="line2d_37">
      <path d="M 289.95915 358.323779 
L 289.95915 28.14396 
" clip-path="url(#p28e398198d)" style="fill: none; stroke-dasharray: 2.96,1.28; stroke-dashoffset: 0; stroke: #808080; stroke-opacity: 0.1; stroke-width: 0.8"/>
     </g>
     <g id="line2d_38">
      <g>
       <use xlink:href="#m412d98b5b3" x="289.95915" y="358.323779" style="stroke: #000000; stroke-width: 0.6"/>
      </g>
     </g>
    </g>
    <g id="xtick_20">
     <g id="line2d_39">
      <path d="M 298.15571 358.323779 
L 298.15571 28.14396 
" clip-path="url(#p28e398198d)" style="fill: none; stroke-dasharray: 2.96,1.28; stroke-dashoffset: 0; stroke: #808080; stroke-opacity: 0.1; stroke-width: 0.8"/>
     </g>
     <g id="line2d_40">
      <g>
       <use xlink:href="#m412d98b5b3" x="298.15571" y="358.323779" style="stroke: #000000; stroke-width: 0.6"/>
      </g>
     </g>
    </g>
    <g id="xtick_21">
     <g id="line2d_41">
      <path d="M 305.255892 358.323779 
L 305.255892 28.14396 
" clip-path="url(#p28e398198d)" style="fill: none; stroke-dasharray: 2.96,1.28; stroke-dashoffset: 0; stroke: #808080; stroke-opacity: 0.1; stroke-width: 0.8"/>
     </g>
     <g id="line2d_42">
      <g>
       <use xlink:href="#m412d98b5b3" x="305.255892" y="358.323779" style="stroke: #000000; stroke-width: 0.6"/>
      </g>
     </g>
    </g>
    <g id="xtick_22">
     <g id="line2d_43">
      <path d="M 311.518697 358.323779 
L 311.518697 28.14396 
" clip-path="url(#p28e398198d)" style="fill: none; stroke-dasharray: 2.96,1.28; stroke-dashoffset: 0; stroke: #808080; stroke-opacity: 0.1; stroke-width: 0.8"/>
     </g>
     <g id="line2d_44">
      <g>
       <use xlink:href="#m412d98b5b3" x="311.518697" y="358.323779" style="stroke: #000000; stroke-width: 0.6"/>
      </g>
     </g>
    </g>
    <g id="xtick_23">
     <g id="line2d_45">
      <path d="M 353.977256 358.323779 
L 353.977256 28.14396 
" clip-path="url(#p28e398198d)" style="fill: none; stroke-dasharray: 2.96,1.28; stroke-dashoffset: 0; stroke: #808080; stroke-opacity: 0.1; stroke-width: 0.8"/>
     </g>
     <g id="line2d_46">
      <g>
       <use xlink:href="#m412d98b5b3" x="353.977256" y="358.323779" style="stroke: #000000; stroke-width: 0.6"/>
      </g>
     </g>
    </g>
    <g id="xtick_24">
     <g id="line2d_47">
      <path d="M 375.536803 358.323779 
L 375.536803 28.14396 
" clip-path="url(#p28e398198d)" style="fill: none; stroke-dasharray: 2.96,1.28; stroke-dashoffset: 0; stroke: #808080; stroke-opacity: 0.1; stroke-width: 0.8"/>
     </g>
     <g id="line2d_48">
      <g>
       <use xlink:href="#m412d98b5b3" x="375.536803" y="358.323779" style="stroke: #000000; stroke-width: 0.6"/>
      </g>
     </g>
    </g>
    <g id="xtick_25">
     <g id="line2d_49">
      <path d="M 390.833545 358.323779 
L 390.833545 28.14396 
" clip-path="url(#p28e398198d)" style="fill: none; stroke-dasharray: 2.96,1.28; stroke-dashoffset: 0; stroke: #808080; stroke-opacity: 0.1; stroke-width: 0.8"/>
     </g>
     <g id="line2d_50">
      <g>
       <use xlink:href="#m412d98b5b3" x="390.833545" y="358.323779" style="stroke: #000000; stroke-width: 0.6"/>
      </g>
     </g>
    </g>
    <g id="xtick_26">
     <g id="line2d_51">
      <path d="M 402.69862 358.323779 
L 402.69862 28.14396 
" clip-path="url(#p28e398198d)" style="fill: none; stroke-dasharray: 2.96,1.28; stroke-dashoffset: 0; stroke: #808080; stroke-opacity: 0.1; stroke-width: 0.8"/>
     </g>
     <g id="line2d_52">
      <g>
       <use xlink:href="#m412d98b5b3" x="402.69862" y="358.323779" style="stroke: #000000; stroke-width: 0.6"/>
      </g>
     </g>
    </g>
    <g id="xtick_27">
     <g id="line2d_53">
      <path d="M 412.393092 358.323779 
L 412.393092 28.14396 
" clip-path="url(#p28e398198d)" style="fill: none; stroke-dasharray: 2.96,1.28; stroke-dashoffset: 0; stroke: #808080; stroke-opacity: 0.1; stroke-width: 0.8"/>
     </g>
     <g id="line2d_54">
      <g>
       <use xlink:href="#m412d98b5b3" x="412.393092" y="358.323779" style="stroke: #000000; stroke-width: 0.6"/>
      </g>
     </g>
    </g>
    <g id="xtick_28">
     <g id="line2d_55">
      <path d="M 420.589651 358.323779 
L 420.589651 28.14396 
" clip-path="url(#p28e398198d)" style="fill: none; stroke-dasharray: 2.96,1.28; stroke-dashoffset: 0; stroke: #808080; stroke-opacity: 0.1; stroke-width: 0.8"/>
     </g>
     <g id="line2d_56">
      <g>
       <use xlink:href="#m412d98b5b3" x="420.589651" y="358.323779" style="stroke: #000000; stroke-width: 0.6"/>
      </g>
     </g>
    </g>
    <g id="xtick_29">
     <g id="line2d_57">
      <path d="M 427.689834 358.323779 
L 427.689834 28.14396 
" clip-path="url(#p28e398198d)" style="fill: none; stroke-dasharray: 2.96,1.28; stroke-dashoffset: 0; stroke: #808080; stroke-opacity: 0.1; stroke-width: 0.8"/>
     </g>
     <g id="line2d_58">
      <g>
       <use xlink:href="#m412d98b5b3" x="427.689834" y="358.323779" style="stroke: #000000; stroke-width: 0.6"/>
      </g>
     </g>
    </g>
    <g id="xtick_30">
     <g id="line2d_59">
      <path d="M 433.952639 358.323779 
L 433.952639 28.14396 
" clip-path="url(#p28e398198d)" style="fill: none; stroke-dasharray: 2.96,1.28; stroke-dashoffset: 0; stroke: #808080; stroke-opacity: 0.1; stroke-width: 0.8"/>
     </g>
     <g id="line2d_60">
      <g>
       <use xlink:href="#m412d98b5b3" x="433.952639" y="358.323779" style="stroke: #000000; stroke-width: 0.6"/>
      </g>
     </g>
    </g>
    <g id="text_5">
     <!-- Number of Circuits -->
     <g transform="translate(171.109336 396.056812) scale(0.22 -0.22)">
      <defs>
       <path id="CMR17-4e" d="M 1312 4250 
C 1267 4320 1261 4320 1139 4320 
L 326 4320 
L 326 4160 
L 448 4160 
C 704 4160 819 4129 838 4122 
L 838 610 
C 838 451 838 153 326 153 
L 326 -13 
C 474 0 742 0 902 0 
C 1062 0 1331 0 1478 -13 
L 1478 153 
C 966 153 966 451 966 610 
L 966 4033 
C 1011 3995 1011 3982 1056 3919 
L 3430 76 
C 3475 0 3494 0 3526 0 
C 3590 0 3590 19 3590 139 
L 3590 3705 
C 3590 3863 3590 4160 4102 4160 
L 4102 4326 
C 3955 4320 3686 4320 3526 4320 
C 3366 4320 3098 4320 2950 4326 
L 2950 4160 
C 3462 4160 3462 3862 3462 3703 
L 3462 763 
L 1312 4250 
z
" transform="scale(0.015625)"/>
       <path id="CMR17-75" d="M 1882 2693 
L 1882 2528 
C 2259 2528 2317 2489 2317 2186 
L 2317 1032 
C 2317 500 2029 38 1555 38 
C 1030 38 986 348 986 678 
L 986 2763 
L 211 2693 
L 211 2528 
C 467 2528 640 2528 646 2274 
L 646 1058 
C 646 633 646 361 813 183 
C 896 101 1056 -64 1517 -64 
C 2061 -64 2272 377 2323 506 
L 2330 506 
L 2330 -63 
L 3091 -63 
L 3091 128 
C 2714 128 2656 166 2656 473 
L 2656 2763 
L 1882 2693 
z
" transform="scale(0.015625)"/>
       <path id="CMR17-6d" d="M 4326 1933 
C 4326 2252 4269 2790 3507 2790 
C 3072 2790 2771 2496 2656 2151 
L 2650 2151 
C 2573 2676 2195 2790 1837 2790 
C 1331 2790 1069 2400 973 2144 
L 966 2144 
L 966 2790 
L 211 2720 
L 211 2554 
C 589 2554 646 2515 646 2208 
L 646 428 
C 646 184 621 153 211 153 
L 211 -13 
C 365 0 646 0 813 0 
C 979 0 1267 0 1421 -13 
L 1421 153 
C 1011 153 986 178 986 428 
L 986 1658 
C 986 2247 1344 2688 1792 2688 
C 2266 2688 2317 2266 2317 1958 
L 2317 428 
C 2317 184 2291 153 1882 153 
L 1882 -13 
C 2035 0 2317 0 2483 0 
C 2650 0 2938 0 3091 -13 
L 3091 153 
C 2682 153 2656 178 2656 428 
L 2656 1658 
C 2656 2247 3014 2688 3462 2688 
C 3936 2688 3987 2266 3987 1958 
L 3987 428 
C 3987 184 3962 153 3552 153 
L 3552 -13 
C 3706 0 3987 0 4154 0 
C 4320 0 4608 0 4762 -13 
L 4762 153 
C 4352 153 4326 178 4326 428 
L 4326 1933 
z
" transform="scale(0.015625)"/>
       <path id="CMR17-62" d="M 960 4396 
L 198 4326 
L 198 4160 
C 576 4160 634 4122 634 3817 
L 634 -13 
L 749 -13 
L 934 441 
C 1120 141 1395 -64 1766 -64 
C 2406 -64 3053 500 3053 1370 
C 3053 2188 2477 2790 1830 2790 
C 1434 2790 1152 2579 960 2330 
L 960 4396 
z
M 973 2004 
C 973 2118 973 2138 1062 2272 
C 1312 2657 1670 2688 1792 2688 
C 1984 2688 2643 2585 2643 1376 
C 2643 108 1888 38 1734 38 
C 1536 38 1248 114 1043 486 
C 973 608 973 621 973 735 
L 973 2004 
z
" transform="scale(0.015625)"/>
       <path id="CMR17-65" d="M 2438 1472 
C 2464 1498 2464 1511 2464 1576 
C 2464 2238 2118 2816 1389 2816 
C 710 2816 173 2169 173 1383 
C 173 551 781 -64 1459 -64 
C 2176 -64 2458 607 2458 740 
C 2458 784 2419 784 2406 784 
C 2362 784 2355 771 2330 696 
C 2189 265 1837 51 1504 51 
C 1229 51 954 203 781 480 
C 582 803 582 1176 582 1472 
L 2438 1472 
z
M 589 1568 
C 634 2505 1126 2714 1382 2714 
C 1818 2714 2112 2297 2118 1568 
L 589 1568 
z
" transform="scale(0.015625)"/>
       <path id="CMR17-72" d="M 960 1497 
C 960 2112 1222 2688 1702 2688 
C 1747 2688 1792 2682 1837 2662 
C 1837 2662 1696 2617 1696 2452 
C 1696 2298 1818 2234 1914 2234 
C 1990 2234 2131 2279 2131 2458 
C 2131 2663 1926 2790 1709 2790 
C 1222 2790 1011 2317 947 2093 
L 941 2093 
L 941 2790 
L 198 2720 
L 198 2554 
C 576 2554 634 2515 634 2208 
L 634 428 
C 634 184 608 153 198 153 
L 198 -13 
C 352 0 646 0 813 0 
C 998 0 1325 0 1498 -13 
L 1498 153 
C 1037 153 960 153 960 440 
L 960 1497 
z
" transform="scale(0.015625)"/>
       <path id="CMR17-6f" d="M 2758 1356 
C 2758 2176 2163 2816 1466 2816 
C 768 2816 173 2176 173 1356 
C 173 551 768 -64 1466 -64 
C 2163 -64 2758 551 2758 1356 
z
M 1466 51 
C 1165 51 909 230 762 480 
C 602 767 582 1126 582 1408 
C 582 1677 595 2010 762 2298 
C 890 2509 1139 2714 1466 2714 
C 1754 2714 1997 2554 2150 2330 
C 2349 2029 2349 1607 2349 1408 
C 2349 1158 2336 775 2163 467 
C 1984 173 1709 51 1466 51 
z
" transform="scale(0.015625)"/>
       <path id="CMR17-66" d="M 979 2560 
L 1709 2560 
L 1709 2725 
L 966 2725 
L 966 3494 
C 966 4022 1235 4352 1510 4352 
C 1594 4352 1690 4327 1754 4282 
C 1702 4269 1568 4225 1568 4067 
C 1568 3901 1696 3850 1786 3850 
C 1875 3850 2003 3901 2003 4067 
C 2003 4308 1773 4454 1517 4454 
C 1152 4454 653 4156 653 3481 
L 653 2725 
L 141 2725 
L 141 2560 
L 653 2560 
L 653 427 
C 653 184 627 153 218 153 
L 218 -13 
C 371 0 666 0 832 0 
C 1018 0 1344 0 1517 -13 
L 1517 153 
C 1056 153 979 153 979 439 
L 979 2560 
z
" transform="scale(0.015625)"/>
       <path id="CMR17-43" d="M 3974 4289 
C 3974 4403 3968 4410 3930 4410 
C 3904 4410 3898 4403 3853 4327 
L 3571 3792 
C 3258 4187 2874 4416 2381 4416 
C 1286 4416 294 3456 294 2148 
C 294 826 1286 -128 2387 -128 
C 3366 -128 3974 730 3974 1461 
C 3974 1524 3974 1550 3917 1550 
C 3866 1550 3866 1531 3859 1474 
C 3808 585 3168 38 2477 38 
C 1824 38 781 495 781 2147 
C 781 3805 1843 4250 2464 4250 
C 3187 4250 3712 3628 3834 2745 
C 3846 2668 3846 2655 3904 2655 
C 3974 2655 3974 2668 3974 2783 
L 3974 4289 
z
" transform="scale(0.015625)"/>
       <path id="CMR17-69" d="M 992 3909 
C 992 4049 877 4170 730 4170 
C 589 4170 467 4056 467 3909 
C 467 3769 582 3648 730 3648 
C 870 3648 992 3763 992 3909 
z
M 243 2706 
L 243 2541 
C 602 2541 653 2502 653 2197 
L 653 427 
C 653 184 627 153 218 153 
L 218 -13 
C 371 0 646 0 806 0 
C 960 0 1222 0 1370 -13 
L 1370 153 
C 992 153 979 191 979 420 
L 979 2776 
L 243 2706 
z
" transform="scale(0.015625)"/>
       <path id="CMR17-63" d="M 2234 2240 
C 2112 2240 1933 2240 1933 2017 
C 1933 1838 2080 1787 2163 1787 
C 2208 1787 2394 1807 2394 2024 
C 2394 2467 1958 2803 1466 2803 
C 787 2803 211 2178 211 1363 
C 211 516 813 -64 1466 -64 
C 2259 -64 2458 677 2458 748 
C 2458 774 2451 793 2406 793 
C 2362 793 2355 787 2330 703 
C 2163 180 1798 51 1523 51 
C 1114 51 621 427 621 1369 
C 621 2338 1094 2688 1472 2688 
C 1722 2688 2093 2573 2234 2240 
z
" transform="scale(0.015625)"/>
       <path id="CMR17-74" d="M 966 2560 
L 1862 2560 
L 1862 2725 
L 966 2725 
L 966 3904 
L 851 3904 
C 838 3245 614 2668 70 2668 
L 70 2560 
L 627 2560 
L 627 771 
C 627 650 627 -64 1370 -64 
C 1747 -64 1965 306 1965 777 
L 1965 1140 
L 1850 1140 
L 1850 783 
C 1850 344 1677 51 1408 51 
C 1222 51 966 178 966 758 
L 966 2560 
z
" transform="scale(0.015625)"/>
       <path id="CMR17-73" d="M 1978 2697 
C 1978 2813 1971 2819 1933 2819 
C 1907 2819 1901 2813 1824 2717 
C 1805 2691 1747 2626 1728 2601 
C 1523 2819 1235 2819 1126 2819 
C 416 2819 160 2447 160 2076 
C 160 1498 813 1365 998 1325 
C 1402 1243 1542 1217 1677 1101 
C 1760 1025 1901 884 1901 654 
C 1901 384 1747 38 1158 38 
C 602 38 403 460 288 1021 
C 269 1110 269 1117 218 1117 
C 166 1117 160 1110 160 983 
L 160 63 
C 160 -51 166 -58 205 -58 
C 237 -58 243 -51 275 0 
C 314 57 410 211 448 276 
C 576 103 800 -64 1158 -64 
C 1792 -64 2131 283 2131 784 
C 2131 1112 1958 1285 1875 1362 
C 1683 1561 1459 1606 1190 1657 
C 838 1735 390 1825 390 2217 
C 390 2383 480 2737 1126 2737 
C 1811 2737 1850 2094 1862 1888 
C 1869 1856 1901 1849 1920 1849 
C 1978 1849 1978 1869 1978 1978 
L 1978 2697 
z
" transform="scale(0.015625)"/>
      </defs>
      <use xlink:href="#CMR17-4e" transform="scale(0.996264)"/>
      <use xlink:href="#CMR17-75" transform="translate(69.07243 0) scale(0.996264)"/>
      <use xlink:href="#CMR17-6d" transform="translate(119.9678 0) scale(0.996264)"/>
      <use xlink:href="#CMR17-62" transform="translate(194.284936 0) scale(0.996264)"/>
      <use xlink:href="#CMR17-65" transform="translate(247.782744 0) scale(0.996264)"/>
      <use xlink:href="#CMR17-72" transform="translate(288.268404 0) scale(0.996264)"/>
      <use xlink:href="#CMR17-6f" transform="translate(353.625139 0) scale(0.996264)"/>
      <use xlink:href="#CMR17-66" transform="translate(399.315616 0) scale(0.996264)"/>
      <use xlink:href="#CMR17-43" transform="translate(456.865095 0) scale(0.996264)"/>
      <use xlink:href="#CMR17-69" transform="translate(523.374975 0) scale(0.996264)"/>
      <use xlink:href="#CMR17-72" transform="translate(548.246034 0) scale(0.996264)"/>
      <use xlink:href="#CMR17-63" transform="translate(583.526801 0) scale(0.996264)"/>
      <use xlink:href="#CMR17-75" transform="translate(624.012462 0) scale(0.996264)"/>
      <use xlink:href="#CMR17-69" transform="translate(674.907832 0) scale(0.996264)"/>
      <use xlink:href="#CMR17-74" transform="translate(699.77889 0) scale(0.996264)"/>
      <use xlink:href="#CMR17-73" transform="translate(735.059658 0) scale(0.996264)"/>
     </g>
    </g>
   </g>
   <g id="matplotlib.axis_2">
    <g id="ytick_1">
     <g id="line2d_61">
      <path d="M 53.887993 344.290858 
L 457.92 344.290858 
" clip-path="url(#p28e398198d)" style="fill: none; stroke-dasharray: 2.96,1.28; stroke-dashoffset: 0; stroke: #808080; stroke-opacity: 0.1; stroke-width: 0.8"/>
     </g>
     <g id="line2d_62">
      <defs>
       <path id="me6b5265b7b" d="M 0 0 
L -3.5 0 
" style="stroke: #000000; stroke-width: 0.8"/>
      </defs>
      <g>
       <use xlink:href="#me6b5265b7b" x="53.887993" y="344.290858" style="stroke: #000000; stroke-width: 0.8"/>
      </g>
     </g>
     <g id="text_6">
      <!-- $\mathdefault{0.0}$ -->
      <g transform="translate(30.683881 348.787872) scale(0.13 -0.13)">
       <defs>
        <path id="CMMI12-3a" d="M 1178 307 
C 1178 492 1024 619 870 619 
C 685 619 557 466 557 313 
C 557 128 710 0 864 0 
C 1050 0 1178 153 1178 307 
z
" transform="scale(0.015625)"/>
       </defs>
       <use xlink:href="#CMR17-30" transform="scale(0.996264)"/>
       <use xlink:href="#CMMI12-3a" transform="translate(45.690477 0) scale(0.996264)"/>
       <use xlink:href="#CMR17-30" transform="translate(72.787654 0) scale(0.996264)"/>
      </g>
     </g>
    </g>
    <g id="ytick_2">
     <g id="line2d_63">
      <path d="M 53.887993 298.930662 
L 457.92 298.930662 
" clip-path="url(#p28e398198d)" style="fill: none; stroke-dasharray: 2.96,1.28; stroke-dashoffset: 0; stroke: #808080; stroke-opacity: 0.1; stroke-width: 0.8"/>
     </g>
     <g id="line2d_64">
      <g>
       <use xlink:href="#me6b5265b7b" x="53.887993" y="298.930662" style="stroke: #000000; stroke-width: 0.8"/>
      </g>
     </g>
     <g id="text_7">
      <!-- $\mathdefault{0.1}$ -->
      <g transform="translate(30.683881 303.427676) scale(0.13 -0.13)">
       <use xlink:href="#CMR17-30" transform="scale(0.996264)"/>
       <use xlink:href="#CMMI12-3a" transform="translate(45.690477 0) scale(0.996264)"/>
       <use xlink:href="#CMR17-31" transform="translate(72.787654 0) scale(0.996264)"/>
      </g>
     </g>
    </g>
    <g id="ytick_3">
     <g id="line2d_65">
      <path d="M 53.887993 253.570465 
L 457.92 253.570465 
" clip-path="url(#p28e398198d)" style="fill: none; stroke-dasharray: 2.96,1.28; stroke-dashoffset: 0; stroke: #808080; stroke-opacity: 0.1; stroke-width: 0.8"/>
     </g>
     <g id="line2d_66">
      <g>
       <use xlink:href="#me6b5265b7b" x="53.887993" y="253.570465" style="stroke: #000000; stroke-width: 0.8"/>
      </g>
     </g>
     <g id="text_8">
      <!-- $\mathdefault{0.2}$ -->
      <g transform="translate(30.683881 258.067479) scale(0.13 -0.13)">
       <use xlink:href="#CMR17-30" transform="scale(0.996264)"/>
       <use xlink:href="#CMMI12-3a" transform="translate(45.690477 0) scale(0.996264)"/>
       <use xlink:href="#CMR17-32" transform="translate(72.787654 0) scale(0.996264)"/>
      </g>
     </g>
    </g>
    <g id="ytick_4">
     <g id="line2d_67">
      <path d="M 53.887993 208.210269 
L 457.92 208.210269 
" clip-path="url(#p28e398198d)" style="fill: none; stroke-dasharray: 2.96,1.28; stroke-dashoffset: 0; stroke: #808080; stroke-opacity: 0.1; stroke-width: 0.8"/>
     </g>
     <g id="line2d_68">
      <g>
       <use xlink:href="#me6b5265b7b" x="53.887993" y="208.210269" style="stroke: #000000; stroke-width: 0.8"/>
      </g>
     </g>
     <g id="text_9">
      <!-- $\mathdefault{0.3}$ -->
      <g transform="translate(30.683881 212.707283) scale(0.13 -0.13)">
       <use xlink:href="#CMR17-30" transform="scale(0.996264)"/>
       <use xlink:href="#CMMI12-3a" transform="translate(45.690477 0) scale(0.996264)"/>
       <use xlink:href="#CMR17-33" transform="translate(72.787654 0) scale(0.996264)"/>
      </g>
     </g>
    </g>
    <g id="ytick_5">
     <g id="line2d_69">
      <path d="M 53.887993 162.850072 
L 457.92 162.850072 
" clip-path="url(#p28e398198d)" style="fill: none; stroke-dasharray: 2.96,1.28; stroke-dashoffset: 0; stroke: #808080; stroke-opacity: 0.1; stroke-width: 0.8"/>
     </g>
     <g id="line2d_70">
      <g>
       <use xlink:href="#me6b5265b7b" x="53.887993" y="162.850072" style="stroke: #000000; stroke-width: 0.8"/>
      </g>
     </g>
     <g id="text_10">
      <!-- $\mathdefault{0.4}$ -->
      <g transform="translate(30.683881 167.347086) scale(0.13 -0.13)">
       <use xlink:href="#CMR17-30" transform="scale(0.996264)"/>
       <use xlink:href="#CMMI12-3a" transform="translate(45.690477 0) scale(0.996264)"/>
       <use xlink:href="#CMR17-34" transform="translate(72.787654 0) scale(0.996264)"/>
      </g>
     </g>
    </g>
    <g id="ytick_6">
     <g id="line2d_71">
      <path d="M 53.887993 117.489876 
L 457.92 117.489876 
" clip-path="url(#p28e398198d)" style="fill: none; stroke-dasharray: 2.96,1.28; stroke-dashoffset: 0; stroke: #808080; stroke-opacity: 0.1; stroke-width: 0.8"/>
     </g>
     <g id="line2d_72">
      <g>
       <use xlink:href="#me6b5265b7b" x="53.887993" y="117.489876" style="stroke: #000000; stroke-width: 0.8"/>
      </g>
     </g>
     <g id="text_11">
      <!-- $\mathdefault{0.5}$ -->
      <g transform="translate(30.683881 121.98689) scale(0.13 -0.13)">
       <defs>
        <path id="CMR17-35" d="M 730 3692 
C 794 3666 1056 3584 1325 3584 
C 1920 3584 2246 3911 2432 4100 
C 2432 4157 2432 4192 2394 4192 
C 2387 4192 2374 4192 2323 4163 
C 2099 4058 1837 3973 1517 3973 
C 1325 3973 1037 3999 723 4139 
C 653 4171 640 4171 634 4171 
C 602 4171 595 4164 595 4037 
L 595 2203 
C 595 2089 595 2057 659 2057 
C 691 2057 704 2070 736 2114 
C 941 2401 1222 2522 1542 2522 
C 1766 2522 2246 2382 2246 1289 
C 2246 1085 2246 715 2054 421 
C 1894 159 1645 25 1370 25 
C 947 25 518 320 403 814 
C 429 807 480 795 506 795 
C 589 795 749 840 749 1038 
C 749 1210 627 1280 506 1280 
C 358 1280 262 1190 262 1011 
C 262 454 704 -128 1382 -128 
C 2042 -128 2669 440 2669 1264 
C 2669 2030 2170 2624 1549 2624 
C 1222 2624 947 2503 730 2274 
L 730 3692 
z
" transform="scale(0.015625)"/>
       </defs>
       <use xlink:href="#CMR17-30" transform="scale(0.996264)"/>
       <use xlink:href="#CMMI12-3a" transform="translate(45.690477 0) scale(0.996264)"/>
       <use xlink:href="#CMR17-35" transform="translate(72.787654 0) scale(0.996264)"/>
      </g>
     </g>
    </g>
    <g id="ytick_7">
     <g id="line2d_73">
      <path d="M 53.887993 72.129679 
L 457.92 72.129679 
" clip-path="url(#p28e398198d)" style="fill: none; stroke-dasharray: 2.96,1.28; stroke-dashoffset: 0; stroke: #808080; stroke-opacity: 0.1; stroke-width: 0.8"/>
     </g>
     <g id="line2d_74">
      <g>
       <use xlink:href="#me6b5265b7b" x="53.887993" y="72.129679" style="stroke: #000000; stroke-width: 0.8"/>
      </g>
     </g>
     <g id="text_12">
      <!-- $\mathdefault{0.6}$ -->
      <g transform="translate(30.683881 76.626693) scale(0.13 -0.13)">
       <defs>
        <path id="CMR17-36" d="M 678 2176 
C 678 3690 1395 4032 1811 4032 
C 1946 4032 2272 4009 2400 3776 
C 2298 3776 2106 3776 2106 3553 
C 2106 3381 2246 3323 2336 3323 
C 2394 3323 2566 3348 2566 3560 
C 2566 3954 2246 4179 1805 4179 
C 1043 4179 243 3390 243 1984 
C 243 253 966 -128 1478 -128 
C 2099 -128 2688 427 2688 1283 
C 2688 2081 2170 2662 1517 2662 
C 1126 2662 838 2407 678 1960 
L 678 2176 
z
M 1478 25 
C 691 25 691 1200 691 1436 
C 691 1896 909 2560 1504 2560 
C 1613 2560 1926 2560 2138 2120 
C 2253 1870 2253 1609 2253 1289 
C 2253 944 2253 690 2118 434 
C 1978 171 1773 25 1478 25 
z
" transform="scale(0.015625)"/>
       </defs>
       <use xlink:href="#CMR17-30" transform="scale(0.996264)"/>
       <use xlink:href="#CMMI12-3a" transform="translate(45.690477 0) scale(0.996264)"/>
       <use xlink:href="#CMR17-36" transform="translate(72.787654 0) scale(0.996264)"/>
      </g>
     </g>
    </g>
    <g id="text_13">
     <!-- Abs. Difference in Ratio -->
     <g transform="translate(22.420693 300.1644) rotate(-90) scale(0.22 -0.22)">
      <defs>
       <path id="CMR17-41" d="M 2323 4378 
C 2291 4461 2278 4480 2214 4480 
C 2150 4480 2138 4461 2106 4378 
L 749 566 
C 627 223 371 153 147 153 
L 147 -13 
C 262 0 518 0 640 0 
C 800 0 1056 0 1210 -13 
L 1210 153 
C 909 153 864 361 864 439 
C 864 497 877 530 890 569 
L 1229 1536 
L 2906 1536 
L 3290 442 
C 3322 365 3322 352 3322 327 
C 3322 153 3046 153 2925 153 
L 2925 0 
C 3110 0 3443 0 3642 0 
C 3808 0 4128 0 4282 -13 
L 4282 153 
C 3942 153 3827 153 3744 387 
L 2323 4378 
z
M 2067 3893 
L 2848 1702 
L 1286 1702 
L 2067 3893 
z
" transform="scale(0.015625)"/>
       <path id="CMR17-2e" d="M 1062 261 
C 1062 420 934 522 800 522 
C 672 522 538 420 538 261 
C 538 102 666 0 800 0 
C 928 0 1062 102 1062 261 
z
" transform="scale(0.015625)"/>
       <path id="CMR17-44" d="M 333 4352 
L 333 4186 
C 774 4186 845 4186 845 3900 
L 845 452 
C 845 166 774 166 333 166 
L 333 0 
L 2368 0 
C 3398 0 4224 943 4224 2141 
C 4224 3346 3411 4352 2368 4352 
L 333 4352 
z
M 1523 166 
C 1267 166 1254 197 1254 414 
L 1254 3938 
C 1254 4155 1267 4186 1523 4186 
L 2240 4186 
C 2771 4186 3750 3874 3750 2141 
C 3750 1242 3488 879 3366 707 
C 3213 510 2848 166 2240 166 
L 1523 166 
z
" transform="scale(0.015625)"/>
       <path id="CMR17-b" d="M 2554 2560 
L 3283 2560 
L 3283 2725 
L 2541 2725 
L 2541 3494 
C 2541 4022 2810 4352 3085 4352 
C 3168 4352 3264 4327 3328 4282 
C 3277 4269 3142 4225 3142 4067 
C 3142 3901 3270 3850 3360 3850 
C 3450 3850 3578 3901 3578 4067 
C 3578 4308 3347 4454 3091 4454 
C 2842 4454 2637 4333 2477 4181 
C 2330 4390 2086 4454 1837 4454 
C 1338 4454 634 4168 634 3469 
L 634 2725 
L 122 2725 
L 122 2560 
L 634 2560 
L 634 427 
C 634 184 608 153 198 153 
L 198 -13 
C 352 0 634 0 794 0 
C 960 0 1242 0 1395 -13 
L 1395 153 
C 986 153 960 178 960 427 
L 960 2560 
L 2227 2560 
L 2227 427 
C 2227 184 2202 153 1792 153 
L 1792 -13 
C 1946 0 2240 0 2406 0 
C 2592 0 2918 0 3091 -13 
L 3091 153 
C 2630 153 2554 153 2554 439 
L 2554 2560 
z
M 947 2725 
L 947 3469 
C 947 4047 1395 4352 1824 4352 
C 1920 4352 2170 4332 2323 4187 
C 2208 4187 2099 4136 2099 3977 
C 2099 3812 2246 3767 2259 3767 
C 2227 3652 2227 3526 2227 3481 
L 2227 2725 
L 947 2725 
z
" transform="scale(0.015625)"/>
       <path id="CMR17-6e" d="M 2656 1933 
C 2656 2259 2592 2790 1837 2790 
C 1331 2790 1069 2400 973 2144 
L 966 2144 
L 966 2790 
L 211 2720 
L 211 2554 
C 589 2554 646 2515 646 2208 
L 646 428 
C 646 184 621 153 211 153 
L 211 -13 
C 365 0 646 0 813 0 
C 979 0 1267 0 1421 -13 
L 1421 153 
C 1011 153 986 178 986 428 
L 986 1658 
C 986 2247 1344 2688 1792 2688 
C 2266 2688 2317 2266 2317 1958 
L 2317 428 
C 2317 184 2291 153 1882 153 
L 1882 -13 
C 2035 0 2317 0 2483 0 
C 2650 0 2938 0 3091 -13 
L 3091 153 
C 2682 153 2656 178 2656 428 
L 2656 1933 
z
" transform="scale(0.015625)"/>
       <path id="CMR17-52" d="M 2509 2146 
C 3117 2268 3629 2676 3629 3186 
C 3629 3785 2950 4326 2054 4326 
L 333 4326 
L 333 4160 
C 774 4160 845 4160 845 3873 
L 845 415 
C 845 128 774 128 333 128 
L 333 -26 
C 518 -26 851 -26 1050 -26 
C 1248 -26 1581 -26 1766 -26 
L 1766 128 
C 1325 128 1254 128 1254 417 
L 1254 2112 
L 2003 2112 
C 2368 2112 2573 1964 2662 1881 
C 2918 1632 2918 1459 2918 1024 
C 2918 595 2918 377 3110 160 
C 3354 -102 3680 -128 3821 -128 
C 4294 -128 4365 396 4365 503 
C 4365 540 4365 585 4307 585 
C 4256 585 4250 547 4250 522 
C 4218 112 4032 -26 3834 -26 
C 3482 -26 3443 375 3405 764 
C 3386 898 3373 993 3360 1133 
C 3322 1452 3270 1917 2509 2146 
z
M 1984 2214 
L 1254 2214 
L 1254 3913 
C 1254 4129 1267 4160 1523 4160 
L 1990 4160 
C 2522 4160 3142 3977 3142 3190 
C 3142 2372 2464 2214 1984 2214 
z
" transform="scale(0.015625)"/>
       <path id="CMR17-61" d="M 2304 1653 
C 2304 2072 2304 2294 2035 2543 
C 1798 2752 1523 2816 1306 2816 
C 800 2816 435 2407 435 1971 
C 435 1728 627 1728 666 1728 
C 749 1728 896 1778 896 1954 
C 896 2112 774 2181 666 2181 
C 640 2181 608 2174 589 2168 
C 723 2592 1069 2714 1293 2714 
C 1613 2714 1965 2429 1965 1885 
L 1965 1600 
C 1587 1600 1133 1549 774 1357 
C 371 1133 256 813 256 570 
C 256 77 832 -64 1171 -64 
C 1523 -64 1850 139 1990 511 
C 2003 233 2182 -18 2464 -18 
C 2598 -18 2938 70 2938 567 
L 2938 920 
L 2822 920 
L 2822 562 
C 2822 178 2650 128 2566 128 
C 2304 128 2304 458 2304 738 
L 2304 1653 
z
M 1965 870 
C 1965 317 1568 38 1216 38 
C 896 38 646 275 646 570 
C 646 761 730 1100 1101 1305 
C 1408 1478 1760 1504 1965 1504 
L 1965 870 
z
" transform="scale(0.015625)"/>
      </defs>
      <use xlink:href="#CMR17-41" transform="scale(0.996264)"/>
      <use xlink:href="#CMR17-62" transform="translate(69.07243 0) scale(0.996264)"/>
      <use xlink:href="#CMR17-73" transform="translate(119.9678 0) scale(0.996264)"/>
      <use xlink:href="#CMR17-2e" transform="translate(155.769137 0) scale(0.996264)"/>
      <use xlink:href="#CMR17-44" transform="translate(221.125856 0) scale(0.996264)"/>
      <use xlink:href="#CMR17-69" transform="translate(291.519412 0) scale(0.996264)"/>
      <use xlink:href="#CMR17-b" transform="translate(316.390471 0) scale(0.996264)"/>
      <use xlink:href="#CMR17-65" transform="translate(368.735148 0) scale(0.996264)"/>
      <use xlink:href="#CMR17-72" transform="translate(409.220808 0) scale(0.996264)"/>
      <use xlink:href="#CMR17-65" transform="translate(444.501576 0) scale(0.996264)"/>
      <use xlink:href="#CMR17-6e" transform="translate(484.987237 0) scale(0.996264)"/>
      <use xlink:href="#CMR17-63" transform="translate(535.882606 0) scale(0.996264)"/>
      <use xlink:href="#CMR17-65" transform="translate(576.368267 0) scale(0.996264)"/>
      <use xlink:href="#CMR17-69" transform="translate(646.929894 0) scale(0.996264)"/>
      <use xlink:href="#CMR17-6e" transform="translate(671.800952 0) scale(0.996264)"/>
      <use xlink:href="#CMR17-52" transform="translate(752.772288 0) scale(0.996264)"/>
      <use xlink:href="#CMR17-61" transform="translate(820.56339 0) scale(0.996264)"/>
      <use xlink:href="#CMR17-74" transform="translate(866.253867 0) scale(0.996264)"/>
      <use xlink:href="#CMR17-69" transform="translate(901.534635 0) scale(0.996264)"/>
      <use xlink:href="#CMR17-6f" transform="translate(926.405694 0) scale(0.996264)"/>
     </g>
    </g>
   </g>
   <g id="LineCollection_1">
    <path d="M 72.253084 320.662128 
L 72.253084 106.081688 
" clip-path="url(#p28e398198d)" style="fill: none; stroke: #1f77b4; stroke-width: 1.5"/>
    <path d="M 111.703663 310.404527 
L 111.703663 167.535017 
" clip-path="url(#p28e398198d)" style="fill: none; stroke: #1f77b4; stroke-width: 1.5"/>
    <path d="M 153.397138 317.818376 
L 153.397138 170.396567 
" clip-path="url(#p28e398198d)" style="fill: none; stroke: #1f77b4; stroke-width: 1.5"/>
    <path d="M 194.687026 341.698461 
L 194.687026 258.472373 
" clip-path="url(#p28e398198d)" style="fill: none; stroke: #1f77b4; stroke-width: 1.5"/>
    <path d="M 235.388777 335.862498 
L 235.388777 276.999337 
" clip-path="url(#p28e398198d)" style="fill: none; stroke: #1f77b4; stroke-width: 1.5"/>
    <path d="M 276.291449 339.450872 
L 276.291449 299.194272 
" clip-path="url(#p28e398198d)" style="fill: none; stroke: #1f77b4; stroke-width: 1.5"/>
    <path d="M 317.120967 341.233453 
L 317.120967 314.782221 
" clip-path="url(#p28e398198d)" style="fill: none; stroke: #1f77b4; stroke-width: 1.5"/>
    <path d="M 357.921552 341.342138 
L 357.921552 325.407385 
" clip-path="url(#p28e398198d)" style="fill: none; stroke: #1f77b4; stroke-width: 1.5"/>
    <path d="M 398.736849 342.022312 
L 398.736849 330.722775 
" clip-path="url(#p28e398198d)" style="fill: none; stroke: #1f77b4; stroke-width: 1.5"/>
    <path d="M 439.554909 342.717487 
L 439.554909 334.591433 
" clip-path="url(#p28e398198d)" style="fill: none; stroke: #1f77b4; stroke-width: 1.5"/>
   </g>
   <g id="line2d_75">
    <defs>
     <path id="m6086cda40c" d="M 3 0 
L -3 -0 
" style="stroke: #1f77b4"/>
    </defs>
    <g clip-path="url(#p28e398198d)">
     <use xlink:href="#m6086cda40c" x="72.253084" y="320.662128" style="fill: #1f77b4; stroke: #1f77b4"/>
     <use xlink:href="#m6086cda40c" x="111.703663" y="310.404527" style="fill: #1f77b4; stroke: #1f77b4"/>
     <use xlink:href="#m6086cda40c" x="153.397138" y="317.818376" style="fill: #1f77b4; stroke: #1f77b4"/>
     <use xlink:href="#m6086cda40c" x="194.687026" y="341.698461" style="fill: #1f77b4; stroke: #1f77b4"/>
     <use xlink:href="#m6086cda40c" x="235.388777" y="335.862498" style="fill: #1f77b4; stroke: #1f77b4"/>
     <use xlink:href="#m6086cda40c" x="276.291449" y="339.450872" style="fill: #1f77b4; stroke: #1f77b4"/>
     <use xlink:href="#m6086cda40c" x="317.120967" y="341.233453" style="fill: #1f77b4; stroke: #1f77b4"/>
     <use xlink:href="#m6086cda40c" x="357.921552" y="341.342138" style="fill: #1f77b4; stroke: #1f77b4"/>
     <use xlink:href="#m6086cda40c" x="398.736849" y="342.022312" style="fill: #1f77b4; stroke: #1f77b4"/>
     <use xlink:href="#m6086cda40c" x="439.554909" y="342.717487" style="fill: #1f77b4; stroke: #1f77b4"/>
    </g>
   </g>
   <g id="line2d_76">
    <g clip-path="url(#p28e398198d)">
     <use xlink:href="#m6086cda40c" x="72.253084" y="106.081688" style="fill: #1f77b4; stroke: #1f77b4"/>
     <use xlink:href="#m6086cda40c" x="111.703663" y="167.535017" style="fill: #1f77b4; stroke: #1f77b4"/>
     <use xlink:href="#m6086cda40c" x="153.397138" y="170.396567" style="fill: #1f77b4; stroke: #1f77b4"/>
     <use xlink:href="#m6086cda40c" x="194.687026" y="258.472373" style="fill: #1f77b4; stroke: #1f77b4"/>
     <use xlink:href="#m6086cda40c" x="235.388777" y="276.999337" style="fill: #1f77b4; stroke: #1f77b4"/>
     <use xlink:href="#m6086cda40c" x="276.291449" y="299.194272" style="fill: #1f77b4; stroke: #1f77b4"/>
     <use xlink:href="#m6086cda40c" x="317.120967" y="314.782221" style="fill: #1f77b4; stroke: #1f77b4"/>
     <use xlink:href="#m6086cda40c" x="357.921552" y="325.407385" style="fill: #1f77b4; stroke: #1f77b4"/>
     <use xlink:href="#m6086cda40c" x="398.736849" y="330.722775" style="fill: #1f77b4; stroke: #1f77b4"/>
     <use xlink:href="#m6086cda40c" x="439.554909" y="334.591433" style="fill: #1f77b4; stroke: #1f77b4"/>
    </g>
   </g>
   <g id="LineCollection_2">
    <path d="M 72.253084 315.271349 
L 72.253084 83.1004 
" clip-path="url(#p28e398198d)" style="fill: none; stroke: #ff7f0e; stroke-width: 1.5"/>
    <path d="M 111.703663 316.358824 
L 111.703663 186.805281 
" clip-path="url(#p28e398198d)" style="fill: none; stroke: #ff7f0e; stroke-width: 1.5"/>
    <path d="M 153.397138 322.367112 
L 153.397138 195.700248 
" clip-path="url(#p28e398198d)" style="fill: none; stroke: #ff7f0e; stroke-width: 1.5"/>
    <path d="M 194.687026 323.395992 
L 194.687026 250.951827 
" clip-path="url(#p28e398198d)" style="fill: none; stroke: #ff7f0e; stroke-width: 1.5"/>
    <path d="M 235.388777 338.995107 
L 235.388777 290.873118 
" clip-path="url(#p28e398198d)" style="fill: none; stroke: #ff7f0e; stroke-width: 1.5"/>
    <path d="M 276.291449 340.315949 
L 276.291449 311.269646 
" clip-path="url(#p28e398198d)" style="fill: none; stroke: #ff7f0e; stroke-width: 1.5"/>
    <path d="M 317.120967 339.963372 
L 317.120967 317.065303 
" clip-path="url(#p28e398198d)" style="fill: none; stroke: #ff7f0e; stroke-width: 1.5"/>
    <path d="M 357.921552 342.706207 
L 357.921552 324.812474 
" clip-path="url(#p28e398198d)" style="fill: none; stroke: #ff7f0e; stroke-width: 1.5"/>
    <path d="M 398.736849 341.856504 
L 398.736849 329.476759 
" clip-path="url(#p28e398198d)" style="fill: none; stroke: #ff7f0e; stroke-width: 1.5"/>
    <path d="M 439.554909 343.006854 
L 439.554909 336.05906 
" clip-path="url(#p28e398198d)" style="fill: none; stroke: #ff7f0e; stroke-width: 1.5"/>
   </g>
   <g id="line2d_77">
    <defs>
     <path id="mbc7f5c89e5" d="M 3 0 
L -3 -0 
" style="stroke: #ff7f0e"/>
    </defs>
    <g clip-path="url(#p28e398198d)">
     <use xlink:href="#mbc7f5c89e5" x="72.253084" y="315.271349" style="fill: #ff7f0e; stroke: #ff7f0e"/>
     <use xlink:href="#mbc7f5c89e5" x="111.703663" y="316.358824" style="fill: #ff7f0e; stroke: #ff7f0e"/>
     <use xlink:href="#mbc7f5c89e5" x="153.397138" y="322.367112" style="fill: #ff7f0e; stroke: #ff7f0e"/>
     <use xlink:href="#mbc7f5c89e5" x="194.687026" y="323.395992" style="fill: #ff7f0e; stroke: #ff7f0e"/>
     <use xlink:href="#mbc7f5c89e5" x="235.388777" y="338.995107" style="fill: #ff7f0e; stroke: #ff7f0e"/>
     <use xlink:href="#mbc7f5c89e5" x="276.291449" y="340.315949" style="fill: #ff7f0e; stroke: #ff7f0e"/>
     <use xlink:href="#mbc7f5c89e5" x="317.120967" y="339.963372" style="fill: #ff7f0e; stroke: #ff7f0e"/>
     <use xlink:href="#mbc7f5c89e5" x="357.921552" y="342.706207" style="fill: #ff7f0e; stroke: #ff7f0e"/>
     <use xlink:href="#mbc7f5c89e5" x="398.736849" y="341.856504" style="fill: #ff7f0e; stroke: #ff7f0e"/>
     <use xlink:href="#mbc7f5c89e5" x="439.554909" y="343.006854" style="fill: #ff7f0e; stroke: #ff7f0e"/>
    </g>
   </g>
   <g id="line2d_78">
    <g clip-path="url(#p28e398198d)">
     <use xlink:href="#mbc7f5c89e5" x="72.253084" y="83.1004" style="fill: #ff7f0e; stroke: #ff7f0e"/>
     <use xlink:href="#mbc7f5c89e5" x="111.703663" y="186.805281" style="fill: #ff7f0e; stroke: #ff7f0e"/>
     <use xlink:href="#mbc7f5c89e5" x="153.397138" y="195.700248" style="fill: #ff7f0e; stroke: #ff7f0e"/>
     <use xlink:href="#mbc7f5c89e5" x="194.687026" y="250.951827" style="fill: #ff7f0e; stroke: #ff7f0e"/>
     <use xlink:href="#mbc7f5c89e5" x="235.388777" y="290.873118" style="fill: #ff7f0e; stroke: #ff7f0e"/>
     <use xlink:href="#mbc7f5c89e5" x="276.291449" y="311.269646" style="fill: #ff7f0e; stroke: #ff7f0e"/>
     <use xlink:href="#mbc7f5c89e5" x="317.120967" y="317.065303" style="fill: #ff7f0e; stroke: #ff7f0e"/>
     <use xlink:href="#mbc7f5c89e5" x="357.921552" y="324.812474" style="fill: #ff7f0e; stroke: #ff7f0e"/>
     <use xlink:href="#mbc7f5c89e5" x="398.736849" y="329.476759" style="fill: #ff7f0e; stroke: #ff7f0e"/>
     <use xlink:href="#mbc7f5c89e5" x="439.554909" y="336.05906" style="fill: #ff7f0e; stroke: #ff7f0e"/>
    </g>
   </g>
   <g id="LineCollection_3">
    <path d="M 72.253084 298.162872 
L 72.253084 43.152134 
" clip-path="url(#p28e398198d)" style="fill: none; stroke: #2ca02c; stroke-width: 1.5"/>
    <path d="M 111.703663 320.08503 
L 111.703663 185.346024 
" clip-path="url(#p28e398198d)" style="fill: none; stroke: #2ca02c; stroke-width: 1.5"/>
    <path d="M 153.397138 320.988081 
L 153.397138 233.95904 
" clip-path="url(#p28e398198d)" style="fill: none; stroke: #2ca02c; stroke-width: 1.5"/>
    <path d="M 194.687026 332.519214 
L 194.687026 262.538008 
" clip-path="url(#p28e398198d)" style="fill: none; stroke: #2ca02c; stroke-width: 1.5"/>
    <path d="M 235.388777 338.121879 
L 235.388777 288.428117 
" clip-path="url(#p28e398198d)" style="fill: none; stroke: #2ca02c; stroke-width: 1.5"/>
    <path d="M 276.291449 338.319109 
L 276.291449 307.143088 
" clip-path="url(#p28e398198d)" style="fill: none; stroke: #2ca02c; stroke-width: 1.5"/>
    <path d="M 317.120967 340.567105 
L 317.120967 311.438391 
" clip-path="url(#p28e398198d)" style="fill: none; stroke: #2ca02c; stroke-width: 1.5"/>
    <path d="M 357.921552 341.911965 
L 357.921552 329.06588 
" clip-path="url(#p28e398198d)" style="fill: none; stroke: #2ca02c; stroke-width: 1.5"/>
    <path d="M 398.736849 342.608086 
L 398.736849 332.771358 
" clip-path="url(#p28e398198d)" style="fill: none; stroke: #2ca02c; stroke-width: 1.5"/>
    <path d="M 439.554909 343.315605 
L 439.554909 336.28103 
" clip-path="url(#p28e398198d)" style="fill: none; stroke: #2ca02c; stroke-width: 1.5"/>
   </g>
   <g id="line2d_79">
    <defs>
     <path id="m990a611a45" d="M 3 0 
L -3 -0 
" style="stroke: #2ca02c"/>
    </defs>
    <g clip-path="url(#p28e398198d)">
     <use xlink:href="#m990a611a45" x="72.253084" y="298.162872" style="fill: #2ca02c; stroke: #2ca02c"/>
     <use xlink:href="#m990a611a45" x="111.703663" y="320.08503" style="fill: #2ca02c; stroke: #2ca02c"/>
     <use xlink:href="#m990a611a45" x="153.397138" y="320.988081" style="fill: #2ca02c; stroke: #2ca02c"/>
     <use xlink:href="#m990a611a45" x="194.687026" y="332.519214" style="fill: #2ca02c; stroke: #2ca02c"/>
     <use xlink:href="#m990a611a45" x="235.388777" y="338.121879" style="fill: #2ca02c; stroke: #2ca02c"/>
     <use xlink:href="#m990a611a45" x="276.291449" y="338.319109" style="fill: #2ca02c; stroke: #2ca02c"/>
     <use xlink:href="#m990a611a45" x="317.120967" y="340.567105" style="fill: #2ca02c; stroke: #2ca02c"/>
     <use xlink:href="#m990a611a45" x="357.921552" y="341.911965" style="fill: #2ca02c; stroke: #2ca02c"/>
     <use xlink:href="#m990a611a45" x="398.736849" y="342.608086" style="fill: #2ca02c; stroke: #2ca02c"/>
     <use xlink:href="#m990a611a45" x="439.554909" y="343.315605" style="fill: #2ca02c; stroke: #2ca02c"/>
    </g>
   </g>
   <g id="line2d_80">
    <g clip-path="url(#p28e398198d)">
     <use xlink:href="#m990a611a45" x="72.253084" y="43.152134" style="fill: #2ca02c; stroke: #2ca02c"/>
     <use xlink:href="#m990a611a45" x="111.703663" y="185.346024" style="fill: #2ca02c; stroke: #2ca02c"/>
     <use xlink:href="#m990a611a45" x="153.397138" y="233.95904" style="fill: #2ca02c; stroke: #2ca02c"/>
     <use xlink:href="#m990a611a45" x="194.687026" y="262.538008" style="fill: #2ca02c; stroke: #2ca02c"/>
     <use xlink:href="#m990a611a45" x="235.388777" y="288.428117" style="fill: #2ca02c; stroke: #2ca02c"/>
     <use xlink:href="#m990a611a45" x="276.291449" y="307.143088" style="fill: #2ca02c; stroke: #2ca02c"/>
     <use xlink:href="#m990a611a45" x="317.120967" y="311.438391" style="fill: #2ca02c; stroke: #2ca02c"/>
     <use xlink:href="#m990a611a45" x="357.921552" y="329.06588" style="fill: #2ca02c; stroke: #2ca02c"/>
     <use xlink:href="#m990a611a45" x="398.736849" y="332.771358" style="fill: #2ca02c; stroke: #2ca02c"/>
     <use xlink:href="#m990a611a45" x="439.554909" y="336.28103" style="fill: #2ca02c; stroke: #2ca02c"/>
    </g>
   </g>
   <g id="line2d_81">
    <path d="M 72.253084 213.371908 
L 111.703663 238.969772 
L 153.397138 244.107472 
L 194.687026 300.085417 
L 235.388777 306.430918 
L 276.291449 319.322572 
L 317.120967 328.007837 
L 357.921552 333.374761 
L 398.736849 336.372543 
L 439.554909 338.65446 
" clip-path="url(#p28e398198d)" style="fill: none; stroke: #1f77b4; stroke-width: 1.5; stroke-linecap: square"/>
    <defs>
     <path id="m16b090c7af" d="M 0 5 
C 1.326016 5 2.597899 4.473168 3.535534 3.535534 
C 4.473168 2.597899 5 1.326016 5 0 
C 5 -1.326016 4.473168 -2.597899 3.535534 -3.535534 
C 2.597899 -4.473168 1.326016 -5 0 -5 
C -1.326016 -5 -2.597899 -4.473168 -3.535534 -3.535534 
C -4.473168 -2.597899 -5 -1.326016 -5 0 
C -5 1.326016 -4.473168 2.597899 -3.535534 3.535534 
C -2.597899 4.473168 -1.326016 5 0 5 
z
" style="stroke: #1f77b4"/>
    </defs>
    <g clip-path="url(#p28e398198d)">
     <use xlink:href="#m16b090c7af" x="72.253084" y="213.371908" style="fill: #1f77b4; stroke: #1f77b4"/>
     <use xlink:href="#m16b090c7af" x="111.703663" y="238.969772" style="fill: #1f77b4; stroke: #1f77b4"/>
     <use xlink:href="#m16b090c7af" x="153.397138" y="244.107472" style="fill: #1f77b4; stroke: #1f77b4"/>
     <use xlink:href="#m16b090c7af" x="194.687026" y="300.085417" style="fill: #1f77b4; stroke: #1f77b4"/>
     <use xlink:href="#m16b090c7af" x="235.388777" y="306.430918" style="fill: #1f77b4; stroke: #1f77b4"/>
     <use xlink:href="#m16b090c7af" x="276.291449" y="319.322572" style="fill: #1f77b4; stroke: #1f77b4"/>
     <use xlink:href="#m16b090c7af" x="317.120967" y="328.007837" style="fill: #1f77b4; stroke: #1f77b4"/>
     <use xlink:href="#m16b090c7af" x="357.921552" y="333.374761" style="fill: #1f77b4; stroke: #1f77b4"/>
     <use xlink:href="#m16b090c7af" x="398.736849" y="336.372543" style="fill: #1f77b4; stroke: #1f77b4"/>
     <use xlink:href="#m16b090c7af" x="439.554909" y="338.65446" style="fill: #1f77b4; stroke: #1f77b4"/>
    </g>
   </g>
   <g id="line2d_82">
    <path d="M 72.253084 199.185875 
L 111.703663 251.582053 
L 153.397138 259.03368 
L 194.687026 287.17391 
L 235.388777 314.934112 
L 276.291449 325.792797 
L 317.120967 328.514337 
L 357.921552 333.75934 
L 398.736849 335.666632 
L 439.554909 339.532957 
" clip-path="url(#p28e398198d)" style="fill: none; stroke: #ff7f0e; stroke-width: 1.5; stroke-linecap: square"/>
    <defs>
     <path id="m91e2d08f73" d="M 0 5 
C 1.326016 5 2.597899 4.473168 3.535534 3.535534 
C 4.473168 2.597899 5 1.326016 5 0 
C 5 -1.326016 4.473168 -2.597899 3.535534 -3.535534 
C 2.597899 -4.473168 1.326016 -5 0 -5 
C -1.326016 -5 -2.597899 -4.473168 -3.535534 -3.535534 
C -4.473168 -2.597899 -5 -1.326016 -5 0 
C -5 1.326016 -4.473168 2.597899 -3.535534 3.535534 
C -2.597899 4.473168 -1.326016 5 0 5 
z
" style="stroke: #ff7f0e"/>
    </defs>
    <g clip-path="url(#p28e398198d)">
     <use xlink:href="#m91e2d08f73" x="72.253084" y="199.185875" style="fill: #ff7f0e; stroke: #ff7f0e"/>
     <use xlink:href="#m91e2d08f73" x="111.703663" y="251.582053" style="fill: #ff7f0e; stroke: #ff7f0e"/>
     <use xlink:href="#m91e2d08f73" x="153.397138" y="259.03368" style="fill: #ff7f0e; stroke: #ff7f0e"/>
     <use xlink:href="#m91e2d08f73" x="194.687026" y="287.17391" style="fill: #ff7f0e; stroke: #ff7f0e"/>
     <use xlink:href="#m91e2d08f73" x="235.388777" y="314.934112" style="fill: #ff7f0e; stroke: #ff7f0e"/>
     <use xlink:href="#m91e2d08f73" x="276.291449" y="325.792797" style="fill: #ff7f0e; stroke: #ff7f0e"/>
     <use xlink:href="#m91e2d08f73" x="317.120967" y="328.514337" style="fill: #ff7f0e; stroke: #ff7f0e"/>
     <use xlink:href="#m91e2d08f73" x="357.921552" y="333.75934" style="fill: #ff7f0e; stroke: #ff7f0e"/>
     <use xlink:href="#m91e2d08f73" x="398.736849" y="335.666632" style="fill: #ff7f0e; stroke: #ff7f0e"/>
     <use xlink:href="#m91e2d08f73" x="439.554909" y="339.532957" style="fill: #ff7f0e; stroke: #ff7f0e"/>
    </g>
   </g>
   <g id="line2d_83">
    <path d="M 72.253084 170.657503 
L 111.703663 252.715527 
L 153.397138 277.473561 
L 194.687026 297.528611 
L 235.388777 313.274998 
L 276.291449 322.731099 
L 317.120967 326.002748 
L 357.921552 335.488923 
L 398.736849 337.689722 
L 439.554909 339.798318 
" clip-path="url(#p28e398198d)" style="fill: none; stroke: #2ca02c; stroke-width: 1.5; stroke-linecap: square"/>
    <defs>
     <path id="m45603f2c94" d="M 0 5 
C 1.326016 5 2.597899 4.473168 3.535534 3.535534 
C 4.473168 2.597899 5 1.326016 5 0 
C 5 -1.326016 4.473168 -2.597899 3.535534 -3.535534 
C 2.597899 -4.473168 1.326016 -5 0 -5 
C -1.326016 -5 -2.597899 -4.473168 -3.535534 -3.535534 
C -4.473168 -2.597899 -5 -1.326016 -5 0 
C -5 1.326016 -4.473168 2.597899 -3.535534 3.535534 
C -2.597899 4.473168 -1.326016 5 0 5 
z
" style="stroke: #2ca02c"/>
    </defs>
    <g clip-path="url(#p28e398198d)">
     <use xlink:href="#m45603f2c94" x="72.253084" y="170.657503" style="fill: #2ca02c; stroke: #2ca02c"/>
     <use xlink:href="#m45603f2c94" x="111.703663" y="252.715527" style="fill: #2ca02c; stroke: #2ca02c"/>
     <use xlink:href="#m45603f2c94" x="153.397138" y="277.473561" style="fill: #2ca02c; stroke: #2ca02c"/>
     <use xlink:href="#m45603f2c94" x="194.687026" y="297.528611" style="fill: #2ca02c; stroke: #2ca02c"/>
     <use xlink:href="#m45603f2c94" x="235.388777" y="313.274998" style="fill: #2ca02c; stroke: #2ca02c"/>
     <use xlink:href="#m45603f2c94" x="276.291449" y="322.731099" style="fill: #2ca02c; stroke: #2ca02c"/>
     <use xlink:href="#m45603f2c94" x="317.120967" y="326.002748" style="fill: #2ca02c; stroke: #2ca02c"/>
     <use xlink:href="#m45603f2c94" x="357.921552" y="335.488923" style="fill: #2ca02c; stroke: #2ca02c"/>
     <use xlink:href="#m45603f2c94" x="398.736849" y="337.689722" style="fill: #2ca02c; stroke: #2ca02c"/>
     <use xlink:href="#m45603f2c94" x="439.554909" y="339.798318" style="fill: #2ca02c; stroke: #2ca02c"/>
    </g>
   </g>
   <g id="patch_3">
    <path d="M 53.887993 358.323779 
L 53.887993 28.14396 
" style="fill: none; stroke: #000000; stroke-width: 0.8; stroke-linejoin: miter; stroke-linecap: square"/>
   </g>
   <g id="patch_4">
    <path d="M 457.92 358.323779 
L 457.92 28.14396 
" style="fill: none; stroke: #000000; stroke-width: 0.8; stroke-linejoin: miter; stroke-linecap: square"/>
   </g>
   <g id="patch_5">
    <path d="M 53.887993 358.323779 
L 457.92 358.323779 
" style="fill: none; stroke: #000000; stroke-width: 0.8; stroke-linejoin: miter; stroke-linecap: square"/>
   </g>
   <g id="patch_6">
    <path d="M 53.887993 28.14396 
L 457.92 28.14396 
" style="fill: none; stroke: #000000; stroke-width: 0.8; stroke-linejoin: miter; stroke-linecap: square"/>
   </g>
   <g id="text_14">
    <!-- Model Discrepancy vs. Circuit Count -->
    <g transform="translate(94.189997 22.14396) scale(0.216 -0.216)">
     <defs>
      <path id="CMR17-4d" d="M 1338 4224 
C 1299 4320 1293 4320 1158 4320 
L 339 4320 
L 339 4160 
C 781 4160 851 4160 851 3875 
L 851 610 
C 851 451 851 153 339 153 
L 339 -13 
C 486 0 755 0 915 0 
C 1075 0 1344 0 1491 -13 
L 1491 153 
C 979 153 979 451 979 610 
L 979 4135 
L 986 4135 
L 2490 89 
C 2515 25 2528 -13 2579 -13 
C 2630 -13 2643 25 2669 89 
L 4186 4166 
L 4192 4166 
L 4192 438 
C 4192 153 4122 153 3680 153 
L 3680 -13 
C 3853 0 4198 0 4384 0 
C 4570 0 4922 0 5094 -13 
L 5094 153 
C 4653 153 4582 153 4582 438 
L 4582 3875 
C 4582 4160 4653 4160 5094 4160 
L 5094 4320 
L 4282 4320 
C 4147 4320 4141 4314 4102 4218 
L 2720 502 
L 1338 4224 
z
" transform="scale(0.015625)"/>
      <path id="CMR17-64" d="M 1869 4326 
L 1869 4160 
C 2246 4160 2304 4122 2304 3820 
L 2304 2345 
C 2278 2377 2016 2790 1498 2790 
C 845 2790 211 2208 211 1364 
C 211 525 806 -64 1434 -64 
C 1978 -64 2259 337 2291 380 
L 2291 -63 
L 3066 -63 
L 3066 128 
C 2688 128 2630 166 2630 473 
L 2630 4396 
L 1869 4326 
z
M 2291 755 
C 2291 563 2176 390 2029 262 
C 1811 70 1594 38 1472 38 
C 1286 38 621 134 621 1356 
C 621 2612 1363 2688 1530 2688 
C 1824 2688 2061 2522 2208 2291 
C 2291 2157 2291 2138 2291 2023 
L 2291 755 
z
" transform="scale(0.015625)"/>
      <path id="CMR17-6c" d="M 979 4396 
L 218 4326 
L 218 4160 
C 595 4160 653 4122 653 3817 
L 653 426 
C 653 184 627 153 218 153 
L 218 -13 
C 371 0 653 0 813 0 
C 979 0 1261 0 1414 -13 
L 1414 153 
C 1005 153 979 178 979 426 
L 979 4396 
z
" transform="scale(0.015625)"/>
      <path id="CMR17-70" d="M 1408 -1063 
C 998 -1063 973 -1037 973 -789 
L 973 402 
C 1158 134 1427 -38 1766 -38 
C 2406 -38 3053 523 3053 1388 
C 3053 2191 2496 2802 1837 2802 
C 1453 2802 1139 2592 960 2338 
L 960 2802 
L 198 2732 
L 198 2567 
C 576 2567 634 2528 634 2223 
L 634 -789 
C 634 -1031 608 -1063 198 -1063 
L 198 -1228 
C 352 -1216 634 -1216 800 -1216 
C 966 -1216 1254 -1216 1408 -1228 
L 1408 -1063 
z
M 973 2012 
C 973 2102 973 2235 1222 2471 
C 1254 2497 1472 2688 1792 2688 
C 2259 2688 2643 2108 2643 1382 
C 2643 656 2234 64 1728 64 
C 1498 64 1248 172 1056 472 
C 973 612 973 650 973 752 
L 973 2012 
z
" transform="scale(0.015625)"/>
      <path id="CMR17-79" d="M 2496 2197 
C 2656 2586 2944 2586 3034 2586 
L 3034 2752 
C 2912 2752 2752 2752 2630 2752 
C 2496 2752 2285 2752 2157 2758 
L 2157 2592 
C 2400 2573 2406 2394 2406 2343 
C 2406 2280 2394 2248 2362 2171 
L 1664 449 
L 902 2306 
C 870 2382 870 2426 870 2433 
C 870 2573 1018 2586 1171 2586 
L 1171 2758 
C 1018 2752 742 2752 582 2752 
C 410 2752 205 2752 64 2758 
L 64 2586 
C 410 2586 448 2554 531 2350 
L 1485 15 
C 1197 -738 1030 -1178 627 -1178 
C 557 -1178 397 -1159 282 -1044 
C 429 -1031 493 -942 493 -833 
C 493 -725 416 -629 288 -629 
C 147 -629 77 -725 77 -840 
C 77 -1095 339 -1280 627 -1280 
C 998 -1280 1229 -922 1357 -604 
L 2496 2197 
z
" transform="scale(0.015625)"/>
      <path id="CMR17-76" d="M 2502 2163 
C 2560 2304 2662 2560 3034 2560 
L 3034 2726 
C 2912 2726 2752 2726 2630 2726 
C 2496 2726 2285 2726 2157 2732 
L 2157 2566 
C 2317 2553 2406 2477 2406 2311 
C 2406 2253 2406 2240 2368 2151 
L 1664 377 
L 902 2286 
C 864 2369 864 2381 864 2407 
C 864 2560 1075 2560 1171 2560 
L 1171 2732 
C 1018 2726 736 2726 576 2726 
C 403 2726 205 2726 64 2732 
L 64 2560 
C 307 2560 442 2560 518 2362 
L 1446 44 
C 1485 -51 1491 -64 1549 -64 
C 1606 -64 1613 -51 1651 44 
L 2502 2163 
z
" transform="scale(0.015625)"/>
     </defs>
     <use xlink:href="#CMR17-4d" transform="scale(0.996264)"/>
     <use xlink:href="#CMR17-6f" transform="translate(84.686941 0) scale(0.996264)"/>
     <use xlink:href="#CMR17-64" transform="translate(132.979856 0) scale(0.996264)"/>
     <use xlink:href="#CMR17-65" transform="translate(183.875226 0) scale(0.996264)"/>
     <use xlink:href="#CMR17-6c" transform="translate(224.360887 0) scale(0.996264)"/>
     <use xlink:href="#CMR17-44" transform="translate(279.307911 0) scale(0.996264)"/>
     <use xlink:href="#CMR17-69" transform="translate(349.701467 0) scale(0.996264)"/>
     <use xlink:href="#CMR17-73" transform="translate(374.572526 0) scale(0.996264)"/>
     <use xlink:href="#CMR17-63" transform="translate(410.373864 0) scale(0.996264)"/>
     <use xlink:href="#CMR17-72" transform="translate(450.859524 0) scale(0.996264)"/>
     <use xlink:href="#CMR17-65" transform="translate(486.140292 0) scale(0.996264)"/>
     <use xlink:href="#CMR17-70" transform="translate(526.625952 0) scale(0.996264)"/>
     <use xlink:href="#CMR17-61" transform="translate(577.521322 0) scale(0.996264)"/>
     <use xlink:href="#CMR17-6e" transform="translate(623.211799 0) scale(0.996264)"/>
     <use xlink:href="#CMR17-63" transform="translate(674.107169 0) scale(0.996264)"/>
     <use xlink:href="#CMR17-79" transform="translate(714.592829 0) scale(0.996264)"/>
     <use xlink:href="#CMR17-76" transform="translate(792.961712 0) scale(0.996264)"/>
     <use xlink:href="#CMR17-73" transform="translate(841.254627 0) scale(0.996264)"/>
     <use xlink:href="#CMR17-2e" transform="translate(877.055965 0) scale(0.996264)"/>
     <use xlink:href="#CMR17-43" transform="translate(942.412684 0) scale(0.996264)"/>
     <use xlink:href="#CMR17-69" transform="translate(1008.922565 0) scale(0.996264)"/>
     <use xlink:href="#CMR17-72" transform="translate(1033.793623 0) scale(0.996264)"/>
     <use xlink:href="#CMR17-63" transform="translate(1069.074391 0) scale(0.996264)"/>
     <use xlink:href="#CMR17-75" transform="translate(1109.560051 0) scale(0.996264)"/>
     <use xlink:href="#CMR17-69" transform="translate(1160.455421 0) scale(0.996264)"/>
     <use xlink:href="#CMR17-74" transform="translate(1185.32648 0) scale(0.996264)"/>
     <use xlink:href="#CMR17-43" transform="translate(1250.683214 0) scale(0.996264)"/>
     <use xlink:href="#CMR17-6f" transform="translate(1317.193094 0) scale(0.996264)"/>
     <use xlink:href="#CMR17-75" transform="translate(1362.883571 0) scale(0.996264)"/>
     <use xlink:href="#CMR17-6e" transform="translate(1413.778941 0) scale(0.996264)"/>
     <use xlink:href="#CMR17-74" transform="translate(1462.071857 0) scale(0.996264)"/>
    </g>
   </g>
   <g id="legend_1">
    <g id="text_15">
     <!-- 10 Qubits, 30 Steps, 100 Shots -->
     <g transform="translate(224.585083 54.09186) scale(0.18 -0.18)">
      <defs>
       <path id="CMR17-51" d="M 3027 83 
C 3789 408 4307 1236 4307 2193 
C 4307 3499 3366 4480 2304 4480 
C 1216 4480 294 3488 294 2199 
C 294 928 1216 -64 2304 -64 
C 2451 -64 2656 -45 2899 38 
C 3008 -747 3078 -1216 3629 -1216 
C 4307 -1216 4339 -213 4339 -33 
C 4339 32 4339 76 4294 76 
C 4262 76 4256 31 4256 18 
C 4211 -603 3866 -732 3661 -732 
C 3283 -732 3149 -394 3027 83 
z
M 1958 100 
C 1293 310 768 1017 768 2199 
C 768 3711 1606 4365 2298 4365 
C 3014 4365 3834 3686 3834 2198 
C 3834 1124 3405 527 2976 254 
C 2880 579 2726 960 2310 960 
C 2003 960 1830 692 1830 450 
C 1830 304 1888 183 1958 100 
z
M 2874 192 
C 2618 57 2413 57 2304 57 
C 2016 57 1933 315 1933 454 
C 1933 650 2067 858 2310 858 
C 2720 858 2822 493 2874 192 
z
" transform="scale(0.015625)"/>
       <path id="CMR17-2c" d="M 1011 102 
C 1024 45 1024 25 1024 -77 
C 1024 -463 896 -817 627 -1139 
C 595 -1170 595 -1183 595 -1197 
C 595 -1222 621 -1248 646 -1248 
C 685 -1248 1126 -799 1126 -87 
C 1126 124 1101 522 800 522 
C 659 522 538 427 538 261 
C 538 96 659 0 800 0 
C 877 0 960 32 1011 102 
z
" transform="scale(0.015625)"/>
       <path id="CMR17-53" d="M 2803 4290 
C 2803 4404 2797 4411 2758 4411 
C 2720 4411 2707 4385 2682 4328 
L 2490 3907 
C 2246 4257 1875 4416 1472 4416 
C 819 4416 294 3901 294 3253 
C 294 3056 339 2776 557 2510 
C 794 2218 1018 2167 1530 2033 
C 1722 1982 2042 1899 2106 1874 
C 2470 1722 2662 1341 2662 985 
C 2662 527 2336 38 1779 38 
C 1094 38 454 419 410 1311 
C 403 1413 397 1419 352 1419 
C 301 1419 294 1413 294 1285 
L 294 -1 
C 294 -115 301 -122 339 -122 
C 384 -122 397 -90 486 108 
C 493 127 493 140 614 381 
C 934 -39 1472 -128 1779 -128 
C 2477 -128 2970 451 2970 1124 
C 2970 1454 2848 1708 2778 1823 
C 2509 2230 2221 2306 1914 2382 
C 1869 2402 1856 2402 1498 2490 
C 1152 2579 1005 2624 845 2796 
C 666 2992 602 3196 602 3399 
C 602 3812 934 4263 1478 4263 
C 2157 4263 2579 3786 2675 2993 
C 2694 2878 2701 2872 2746 2872 
C 2803 2872 2803 2891 2803 2999 
L 2803 4290 
z
" transform="scale(0.015625)"/>
       <path id="CMR17-68" d="M 2656 1933 
C 2656 2259 2592 2790 1837 2790 
C 1312 2790 1056 2368 979 2157 
L 973 2157 
L 973 4396 
L 211 4326 
L 211 4160 
C 589 4160 646 4122 646 3817 
L 646 426 
C 646 184 621 153 211 153 
L 211 -13 
C 365 0 646 0 813 0 
C 979 0 1267 0 1421 -13 
L 1421 153 
C 1011 153 986 178 986 428 
L 986 1658 
C 986 2247 1344 2688 1792 2688 
C 2266 2688 2317 2266 2317 1958 
L 2317 428 
C 2317 184 2291 153 1882 153 
L 1882 -13 
C 2035 0 2317 0 2483 0 
C 2650 0 2938 0 3091 -13 
L 3091 153 
C 2682 153 2656 178 2656 428 
L 2656 1933 
z
" transform="scale(0.015625)"/>
      </defs>
      <use xlink:href="#CMR17-31" transform="scale(0.996264)"/>
      <use xlink:href="#CMR17-30" transform="translate(45.690477 0) scale(0.996264)"/>
      <use xlink:href="#CMR17-51" transform="translate(121.456921 0) scale(0.996264)"/>
      <use xlink:href="#CMR17-75" transform="translate(193.171709 0) scale(0.996264)"/>
      <use xlink:href="#CMR17-62" transform="translate(244.067079 0) scale(0.996264)"/>
      <use xlink:href="#CMR17-69" transform="translate(294.962449 0) scale(0.996264)"/>
      <use xlink:href="#CMR17-74" transform="translate(319.833507 0) scale(0.996264)"/>
      <use xlink:href="#CMR17-73" transform="translate(355.114275 0) scale(0.996264)"/>
      <use xlink:href="#CMR17-2c" transform="translate(390.915612 0) scale(0.996264)"/>
      <use xlink:href="#CMR17-33" transform="translate(445.862637 0) scale(0.996264)"/>
      <use xlink:href="#CMR17-30" transform="translate(491.553114 0) scale(0.996264)"/>
      <use xlink:href="#CMR17-53" transform="translate(567.319558 0) scale(0.996264)"/>
      <use xlink:href="#CMR17-74" transform="translate(618.214928 0) scale(0.996264)"/>
      <use xlink:href="#CMR17-65" transform="translate(653.495695 0) scale(0.996264)"/>
      <use xlink:href="#CMR17-70" transform="translate(693.981356 0) scale(0.996264)"/>
      <use xlink:href="#CMR17-73" transform="translate(744.876726 0) scale(0.996264)"/>
      <use xlink:href="#CMR17-2c" transform="translate(780.678063 0) scale(0.996264)"/>
      <use xlink:href="#CMR17-31" transform="translate(835.625088 0) scale(0.996264)"/>
      <use xlink:href="#CMR17-30" transform="translate(881.315565 0) scale(0.996264)"/>
      <use xlink:href="#CMR17-30" transform="translate(927.006042 0) scale(0.996264)"/>
      <use xlink:href="#CMR17-53" transform="translate(1002.772486 0) scale(0.996264)"/>
      <use xlink:href="#CMR17-68" transform="translate(1053.667856 0) scale(0.996264)"/>
      <use xlink:href="#CMR17-6f" transform="translate(1104.563225 0) scale(0.996264)"/>
      <use xlink:href="#CMR17-74" transform="translate(1150.253703 0) scale(0.996264)"/>
      <use xlink:href="#CMR17-73" transform="translate(1185.53447 0) scale(0.996264)"/>
     </g>
    </g>
    <g id="LineCollection_4">
     <path d="M 304.900603 77.821824 
L 304.900603 62.827824 
" style="fill: none; stroke: #1f77b4; stroke-width: 1.5"/>
    </g>
    <g id="line2d_84">
     <g>
      <use xlink:href="#m6086cda40c" x="304.900603" y="77.821824" style="fill: #1f77b4; stroke: #1f77b4"/>
     </g>
    </g>
    <g id="line2d_85">
     <g>
      <use xlink:href="#m6086cda40c" x="304.900603" y="62.827824" style="fill: #1f77b4; stroke: #1f77b4"/>
     </g>
    </g>
    <g id="line2d_86">
     <path d="M 289.906603 70.324824 
L 319.894603 70.324824 
" style="fill: none; stroke: #1f77b4; stroke-width: 1.5; stroke-linecap: square"/>
    </g>
    <g id="line2d_87">
     <g>
      <use xlink:href="#m16b090c7af" x="304.900603" y="70.324824" style="fill: #1f77b4; stroke: #1f77b4"/>
     </g>
    </g>
    <g id="text_16">
     <!-- $\sigma=0.2$ -->
     <g transform="translate(331.889803 75.572724) scale(0.14994 -0.14994)">
      <defs>
       <path id="CMMI12-1b" d="M 3251 2408 
C 3334 2408 3546 2408 3546 2612 
C 3546 2752 3424 2752 3309 2752 
L 1894 2752 
C 934 2752 243 1686 243 932 
C 243 390 595 -64 1171 -64 
C 1926 -64 2752 747 2752 1705 
C 2752 1954 2694 2196 2541 2408 
L 3251 2408 
z
M 1178 64 
C 851 64 614 313 614 754 
C 614 1137 845 2408 1786 2408 
C 2061 2408 2368 2274 2368 1781 
C 2368 1558 2266 1021 2042 652 
C 1811 275 1466 64 1178 64 
z
" transform="scale(0.015625)"/>
       <path id="CMR17-3d" d="M 4115 2017 
C 4211 2017 4307 2017 4307 2125 
C 4307 2240 4198 2240 4090 2240 
L 512 2240 
C 403 2240 294 2240 294 2125 
C 294 2017 390 2017 486 2017 
L 4115 2017 
z
M 4090 896 
C 4198 896 4307 896 4307 1011 
C 4307 1119 4211 1119 4115 1119 
L 486 1119 
C 390 1119 294 1119 294 1011 
C 294 896 403 896 512 896 
L 4090 896 
z
" transform="scale(0.015625)"/>
      </defs>
      <use xlink:href="#CMMI12-1b" transform="scale(0.996264)"/>
      <use xlink:href="#CMR17-3d" transform="translate(86.694062 0) scale(0.996264)"/>
      <use xlink:href="#CMR17-30" transform="translate(186.082859 0) scale(0.996264)"/>
      <use xlink:href="#CMMI12-3a" transform="translate(231.773337 0) scale(0.996264)"/>
      <use xlink:href="#CMR17-32" transform="translate(258.870514 0) scale(0.996264)"/>
     </g>
    </g>
    <g id="LineCollection_5">
     <path d="M 304.900603 98.719214 
L 304.900603 83.725214 
" style="fill: none; stroke: #ff7f0e; stroke-width: 1.5"/>
    </g>
    <g id="line2d_88">
     <g>
      <use xlink:href="#mbc7f5c89e5" x="304.900603" y="98.719214" style="fill: #ff7f0e; stroke: #ff7f0e"/>
     </g>
    </g>
    <g id="line2d_89">
     <g>
      <use xlink:href="#mbc7f5c89e5" x="304.900603" y="83.725214" style="fill: #ff7f0e; stroke: #ff7f0e"/>
     </g>
    </g>
    <g id="line2d_90">
     <path d="M 289.906603 91.222214 
L 319.894603 91.222214 
" style="fill: none; stroke: #ff7f0e; stroke-width: 1.5; stroke-linecap: square"/>
    </g>
    <g id="line2d_91">
     <g>
      <use xlink:href="#m91e2d08f73" x="304.900603" y="91.222214" style="fill: #ff7f0e; stroke: #ff7f0e"/>
     </g>
    </g>
    <g id="text_17">
     <!-- $\sigma=0.4$ -->
     <g transform="translate(331.889803 96.470114) scale(0.14994 -0.14994)">
      <use xlink:href="#CMMI12-1b" transform="scale(0.996264)"/>
      <use xlink:href="#CMR17-3d" transform="translate(86.694062 0) scale(0.996264)"/>
      <use xlink:href="#CMR17-30" transform="translate(186.082859 0) scale(0.996264)"/>
      <use xlink:href="#CMMI12-3a" transform="translate(231.773337 0) scale(0.996264)"/>
      <use xlink:href="#CMR17-34" transform="translate(258.870514 0) scale(0.996264)"/>
     </g>
    </g>
    <g id="LineCollection_6">
     <path d="M 304.900603 119.616603 
L 304.900603 104.622603 
" style="fill: none; stroke: #2ca02c; stroke-width: 1.5"/>
    </g>
    <g id="line2d_92">
     <g>
      <use xlink:href="#m990a611a45" x="304.900603" y="119.616603" style="fill: #2ca02c; stroke: #2ca02c"/>
     </g>
    </g>
    <g id="line2d_93">
     <g>
      <use xlink:href="#m990a611a45" x="304.900603" y="104.622603" style="fill: #2ca02c; stroke: #2ca02c"/>
     </g>
    </g>
    <g id="line2d_94">
     <path d="M 289.906603 112.119603 
L 319.894603 112.119603 
" style="fill: none; stroke: #2ca02c; stroke-width: 1.5; stroke-linecap: square"/>
    </g>
    <g id="line2d_95">
     <g>
      <use xlink:href="#m45603f2c94" x="304.900603" y="112.119603" style="fill: #2ca02c; stroke: #2ca02c"/>
     </g>
    </g>
    <g id="text_18">
     <!-- $\sigma=0.6$ -->
     <g transform="translate(331.889803 117.367503) scale(0.14994 -0.14994)">
      <use xlink:href="#CMMI12-1b" transform="scale(0.996264)"/>
      <use xlink:href="#CMR17-3d" transform="translate(86.694062 0) scale(0.996264)"/>
      <use xlink:href="#CMR17-30" transform="translate(186.082859 0) scale(0.996264)"/>
      <use xlink:href="#CMMI12-3a" transform="translate(231.773337 0) scale(0.996264)"/>
      <use xlink:href="#CMR17-36" transform="translate(258.870514 0) scale(0.996264)"/>
     </g>
    </g>
   </g>
  </g>
 </g>
 <defs>
  <clipPath id="p28e398198d">
   <rect x="53.887993" y="28.14396" width="404.032007" height="330.179818"/>
  </clipPath>
 </defs>
</svg>
